<svg class="typst-doc" viewBox="0 0 595.2755905511812 841.8897637795276" width="595.2755905511812pt" height="841.8897637795276pt" xmlns="http://www.w3.org/2000/svg" xmlns:xlink="http://www.w3.org/1999/xlink" xmlns:h5="http://www.w3.org/1999/xhtml">
    <path class="typst-shape" fill="#ffffff" fill-rule="nonzero" d="M 0 0v 841.8898 h 595.2756 v -841.8898 Z "/>
    <g>
        <g class="typst-text" transform="matrix(1 0 0 -1 79.37007874015748 122.47759288877953)">
            <use xlink:href="#g26A05C0ACA4A0BBA65B69C214033EBC" x="0" y="0" fill="#000000" fill-rule="nonzero"/>
            <use xlink:href="#gC12C6C82813048FAD29D8CBA473E09DE" x="22.74829527559055" y="0" fill="#000000" fill-rule="nonzero"/>
            <use xlink:href="#g12C8347D4AD622483A93ABDDCEAD657B" x="45.4965905511811" y="0" fill="#000000" fill-rule="nonzero"/>
            <use xlink:href="#gEF6A54F055D64833D252895CCCE1A3B5" x="68.24488582677165" y="0" fill="#000000" fill-rule="nonzero"/>
        </g>
        <g class="typst-text" transform="matrix(1 0 0 -1 175.86325984251968 122.47759288877953)">
            <use xlink:href="#g4224C390D0350F3D36ED325AB83CB4FF" x="0" y="0" fill="#000000" fill-rule="nonzero"/>
            <use xlink:href="#gE900E8015E47B147061D5A9671B546F5" x="11.308" y="0" fill="#000000" fill-rule="nonzero"/>
            <use xlink:href="#g4224C390D0350F3D36ED325AB83CB4FF" x="22.616" y="0" fill="#000000" fill-rule="nonzero"/>
            <use xlink:href="#gC8BD856D97176889CE122BB803D11AB6" x="33.924" y="0" fill="#000000" fill-rule="nonzero"/>
        </g>
        <g class="typst-text" transform="matrix(1 0 0 -1 221.09525984251968 122.47759288877953)">
            <use xlink:href="#gC47C2F008FCEE71EFDF403DE8AE922BD" x="5.5" y="0" fill="#000000" fill-rule="nonzero"/>
            <use xlink:href="#g965D994FAAFE76D5E77F846DD2E851C9" x="28.24829527559055" y="0" fill="#000000" fill-rule="nonzero"/>
            <use xlink:href="#g1BF1510B05CB855CC0F4EC3E64C508C1" x="50.9965905511811" y="0" fill="#000000" fill-rule="nonzero"/>
            <use xlink:href="#g9846A869BA304BE52BEC5CA992C50BF4" x="73.74488582677165" y="0" fill="#000000" fill-rule="nonzero"/>
            <use xlink:href="#gA9C38E1FB27B8D346CB6013ABA8B43F8" x="96.4931811023622" y="0" fill="#000000" fill-rule="nonzero"/>
            <use xlink:href="#g64F9A7C3F959E450B6F379927D0A8324" x="119.24147637795275" y="0" fill="#000000" fill-rule="nonzero"/>
            <use xlink:href="#g1582AFEBB873A512783A2E4421DBD4E6" x="141.9897716535433" y="0" fill="#000000" fill-rule="nonzero"/>
            <use xlink:href="#g3F174AA92C2D18949D868C1F6884D19" x="164.73806692913385" y="0" fill="#000000" fill-rule="nonzero"/>
            <use xlink:href="#g6CF5C1522C82062A62A53C9918DF152E" x="187.4863622047244" y="0" fill="#000000" fill-rule="nonzero"/>
            <use xlink:href="#g72D60A0B84C58DF1D1A5124929B95134" x="210.23465748031495" y="0" fill="#000000" fill-rule="nonzero"/>
            <use xlink:href="#g360D4A061D7D693AD6F3092BB283089A" x="232.9829527559055" y="0" fill="#000000" fill-rule="nonzero"/>
            <use xlink:href="#gAE1B49BD60734EBDA6A37F32ABDCB1A2" x="255.73124803149605" y="0" fill="#000000" fill-rule="nonzero"/>
            <use xlink:href="#gC7301181F553E9774F75F39AFF2EFED4" x="278.4795433070866" y="0" fill="#000000" fill-rule="nonzero"/>
        </g>
        <g class="typst-text" transform="matrix(1 0 0 -1 278.4724409448819 153.07329601377953)">
            <use xlink:href="#gB59727728B0E0EFE36451B2742BD9A25" x="0" y="0" fill="#000000" fill-rule="nonzero"/>
            <use xlink:href="#g9B1633F83F0B528E7D7C1F829DF79B44" x="22" y="0" fill="#000000" fill-rule="nonzero"/>
        </g>
        <g class="typst-group" transform="matrix(1 0 0 1 79.37007874015748 197.3732960137795)">
            <g>
                <g class="typst-group">
                    <g>
                        <g class="typst-text" transform="matrix(1 0 0 -1 0 13.76)">
                            <use xlink:href="#g7F0E638BF3DB9F2FC9B3ACB2AE35F0DE" x="0" y="0" fill="#000000" fill-rule="nonzero"/>
                            <use xlink:href="#g1229ABA2AC4D826C9C3E54C27EC6030D" x="16" y="0" fill="#000000" fill-rule="nonzero"/>
                            <use xlink:href="#g10C4E627A6147761BBB52461D98E5F" x="32" y="0" fill="#000000" fill-rule="nonzero"/>
                            <use xlink:href="#gC974B450045DC9C4CEA4EFFAA9183CC1" x="48" y="0" fill="#000000" fill-rule="nonzero"/>
                            <use xlink:href="#g7F0E638BF3DB9F2FC9B3ACB2AE35F0DE" x="64" y="0" fill="#000000" fill-rule="nonzero"/>
                            <use xlink:href="#g7CCDD9EAC7D6F1839C9FCCD7451D83D6" x="80" y="0" fill="#000000" fill-rule="nonzero"/>
                            <use xlink:href="#gE7D664BA70434C910A630E93A32DC13B" x="96" y="0" fill="#000000" fill-rule="nonzero"/>
                            <use xlink:href="#g734BF755A5C0E03A0C724BF29EF42D4" x="112" y="0" fill="#000000" fill-rule="nonzero"/>
                        </g>
                    </g>
                </g>
            </g>
        </g>
        <g class="typst-group" transform="matrix(1 0 0 1 401.0468031496063 244.73329601377952)">
            <g>
                <g class="typst-text" transform="matrix(1 0 0 -1 4.263999999999995 13.76)">
                    <use xlink:href="#g96A56A4121FDEE71D63BBFA91F198F98" x="0" y="0" fill="#000000" fill-rule="nonzero"/>
                    <use xlink:href="#g41F86666D2814D58440A9B96BC6C3CF4" x="16" y="0" fill="#000000" fill-rule="nonzero"/>
                    <use xlink:href="#g2A0617BAA997EA1F09C19742C3EA5454" x="32" y="0" fill="#000000" fill-rule="nonzero"/>
                    <use xlink:href="#gE7C7A65DF5A3C856BF52DFFDEDE821FB" x="48" y="0" fill="#000000" fill-rule="nonzero"/>
                    <use xlink:href="#g1CBFAB624C7CB95170E22F7BBE9BBD6B" x="64" y="0" fill="#000000" fill-rule="nonzero"/>
                    <use xlink:href="#g8D30563C1EFDCF5C4AAC3DEF4A465EB8" x="80" y="0" fill="#000000" fill-rule="nonzero"/>
                    <use xlink:href="#gEE7A8134C5BBABBAD454416F69F54F26" x="96" y="0" fill="#000000" fill-rule="nonzero"/>
                </g>
                <g class="typst-text" transform="matrix(1 0 0 -1 0 43.12)">
                    <use xlink:href="#g9801BC3E51F2976ADE8BBA51812A6F0F" x="0" y="0" fill="#000000" fill-rule="nonzero"/>
                    <use xlink:href="#gC3790EEAA867F5768255A1591D7CB727" x="7.504" y="0" fill="#000000" fill-rule="nonzero"/>
                    <use xlink:href="#g9801BC3E51F2976ADE8BBA51812A6F0F" x="15.008" y="0" fill="#000000" fill-rule="nonzero"/>
                    <use xlink:href="#gC8C1B54A6F8B650B3E8A66BCFA9CF6E2" x="22.512" y="0" fill="#000000" fill-rule="nonzero"/>
                    <use xlink:href="#g2F45B63F0B2FD49FC21594883E3DFA2C" x="34.016" y="0" fill="#000000" fill-rule="nonzero"/>
                    <use xlink:href="#g52905CBD3EF93518397558FEBA1CF7AA" x="54.016" y="0" fill="#000000" fill-rule="nonzero"/>
                    <use xlink:href="#gE6041399C016F10845619EAEBA850A8F" x="65.52" y="0" fill="#000000" fill-rule="nonzero"/>
                    <use xlink:href="#gBB3FA51FA9C3C8A26ECC872317F7B817" x="85.52" y="0" fill="#000000" fill-rule="nonzero"/>
                    <use xlink:href="#gC8C1B54A6F8B650B3E8A66BCFA9CF6E2" x="93.024" y="0" fill="#000000" fill-rule="nonzero"/>
                    <use xlink:href="#gC5A51F12F827BFC6678B5E665485935A" x="104.528" y="0" fill="#000000" fill-rule="nonzero"/>
                </g>
            </g>
        </g>
        <g class="typst-text" transform="matrix(1 0 0 -1 464.0088031496063 772.2496850393701)">
            <use xlink:href="#g1A9712F415A24B1C253A8E0DF6915F0D" x="0" y="0" fill="#000000" fill-rule="nonzero"/>
            <use xlink:href="#gFAF9635903C3C667DEE2DBC041B79F8" x="17.5" y="0" fill="#000000" fill-rule="nonzero"/>
            <use xlink:href="#g1A9712F415A24B1C253A8E0DF6915F0D" x="27.566" y="0" fill="#000000" fill-rule="nonzero"/>
        </g>
    </g>
    <defs id="glyph">
        <symbol id="g26A05C0ACA4A0BBA65B69C214033EBC" overflow="visible">
            <path d="M 0 0m 0.859375 -1.2138672 q 7.1757813 1.7402344 8.862305 6.692383 h -6.1552734 q -0.74121094 0 -1.6220703 -0.0859375 q 0.04296875 0.6015625 0.04296875 0.91308594 q 0 0.27929688 -0.04296875 0.8808594 q 1.2353516 -0.07519531 1.6757813 -0.07519531 h 6.305664 l 0.23632813 4.4902344 h -5.661133 q -0.4296875 0 -1.6113281 -0.13964844 q 0.07519531 0.65527344 0.07519531 0.99902344 q 0 0.31152344 -0.07519531 0.9560547 q 0.7089844 -0.09667969 1.7402344 -0.09667969 h 7.551758 q 1.0527344 1.9443359 1.9765625 4.5546875 q 1.3105469 -0.81640625 2.524414 -1.1923828 q -0.81640625 -0.46191406 -1.2246094 -0.9614258 q -0.40820313 -0.49951172 -1.5253906 -2.411621 h 3.9208984 q 0.7626953 0 1.6328125 0.107421875 q -0.12890625 -0.63378906 -0.12890625 -0.9453125 q 0 -0.3330078 0.12890625 -0.97753906 q -0.89160156 0.107421875 -1.6542969 0.107421875 h -5.951172 l -0.19335938 -4.4902344 h 6.53125 q 1.0205078 0 1.9443359 0.12890625 q -0.064453125 -0.63378906 -0.064453125 -0.9667969 q 0 -0.30078125 0.064453125 -0.9238281 q -1.1816406 0.12890625 -2.0195313 0.12890625 h -6.015625 q 1.7724609 -3.211914 3.319336 -4.243164 q 1.546875 -1.03125 5.553711 -1.6757813 q -1.3427734 -0.6015625 -1.9443359 -2.3417969 q -6.0371094 2.234375 -7.8740234 7.272461 q -0.9667969 -2.6855469 -2.6640625 -4.302246 q -1.6972656 -1.6166992 -5.4140625 -3.378418 q -0.7841797 1.4287109 -2.2451172 1.9765625 Z m 4.801758 17.939453 q 1.0205078 0.34375 1.8691406 0.89160156 q 1.0634766 -2.008789 2.2558594 -3.1152344 q -1.0849609 -0.32226563 -1.9765625 -0.9667969 q -0.9560547 1.9765625 -2.1484375 3.1904297 Z "/>
        </symbol>
        <symbol id="gC12C6C82813048FAD29D8CBA473E09DE" overflow="visible">
            <path d="M 0 0m 1.1279297 6.7890625 q 0.07519531 0.73046875 0.07519531 1.1064453 q 0 0.36523438 -0.0859375 1.1279297 q 1.0205078 -0.13964844 1.7832031 -0.13964844 h 7.283203 v 5.553711 h -4.758789 q -0.9667969 0 -1.9443359 -0.13964844 q 0.12890625 0.7519531 0.12890625 1.1171875 q 0 0.36523438 -0.09667969 1.0527344 q 0.9560547 -0.15039063 1.9873047 -0.15039063 h 11.633789 q 0.29003906 0 0.8808594 0.064453125 l 0.65527344 0.0859375 q -0.09667969 -0.71972656 -0.09667969 -1.0849609 q 0 -0.3544922 0.09667969 -1.0634766 q -0.7841797 0.11816406 -1.6113281 0.11816406 h -5.0166016 v -5.564453 h 6.7353516 q 0.7519531 0 1.7617188 0.15039063 q -0.07519531 -0.81640625 -0.07519531 -1.2246094 q 0 -0.34375 0.04296875 -0.99902344 q -0.7519531 0.13964844 -1.6435547 0.13964844 h -6.821289 v -7.3583984 q 0 -1.3212891 -0.89697266 -1.9013672 q -0.89697266 -0.5800781 -3.324707 -0.81640625 q 0.0107421875 0.16113281 0.0107421875 0.22558594 q 0 1.4501953 -0.8486328 2.4277344 l 0.81640625 -0.12890625 q 0.9238281 -0.13964844 1.4609375 -0.13964844 q 0.9238281 0 0.9238281 1.0742188 v 6.6171875 h -7.208008 q -0.81640625 0 -1.8476563 -0.15039063 Z "/>
        </symbol>
        <symbol id="g12C8347D4AD622483A93ABDDCEAD657B" overflow="visible">
            <path d="M 0 0m 1.0849609 8.787109 q 1.1816406 -0.16113281 1.9765625 -0.16113281 h 4.5009766 v 6.123047 h -2.75 q -0.5048828 0 -2.0839844 -0.19335938 q 0.15039063 0.80566406 0.15039063 1.1923828 q 0 0.36523438 -0.09667969 1.03125 q 1.1816406 -0.19335938 1.8691406 -0.19335938 h 12.96582 q 0.9560547 0 2.1376953 0.16113281 q -0.09667969 -0.7089844 -0.09667969 -1.0419922 q 0 -0.37597656 0.09667969 -1.0957031 q -1.2460938 0.11816406 -2.180664 0.11816406 h -2.1591797 v -6.1015625 h 3.5771484 q 1.2138672 0 2.0839844 0.16113281 q -0.0859375 -0.6875 -0.0859375 -1.0634766 q 0 -0.31152344 0.0859375 -0.98828125 q -0.97753906 0.12890625 -2.0302734 0.12890625 h -3.6201172 v -7.895508 q 0 -0.36523438 0.04296875 -1.0097656 l 0.0859375 -1.0957031 q -0.6982422 0.09667969 -1.03125 0.09667969 q -0.36523438 0 -1.0742188 -0.09667969 l 0.07519531 1.0527344 q 0.053710938 0.65527344 0.053710938 1.0097656 v 7.9384766 h -4.243164 q -0.5263672 -3.9638672 -1.6865234 -5.913574 q -1.1601563 -1.949707 -4.296875 -4.1518555 q -0.55859375 0.91308594 -2.1699219 1.6972656 q 2.9970703 0.71972656 4.4311523 2.6049805 q 1.434082 1.8852539 1.9282227 5.7631836 h -4.3720703 q -0.6875 0 -2.0839844 -0.16113281 q 0.07519531 0.6767578 0.07519531 0.9667969 q 0 0.40820313 -0.07519531 1.1171875 Z m 8.25 -0.171875 h 4.243164 v 6.123047 h -4.243164 v -6.123047 Z "/>
        </symbol>
        <symbol id="gEF6A54F055D64833D252895CCCE1A3B5" overflow="visible">
            <path d="M 0 0m 0.6230469 -1.5898438 q 1.6757813 1.7402344 2.175293 4.286133 q 0.49951172 2.5458984 0.49951172 9.302734 l -0.0859375 4.017578 l -0.032226563 1.2568359 q 1.7080078 -0.11816406 3.040039 -0.11816406 h 10.989258 q 0.5263672 0 1.9335938 0.11816406 q -0.11816406 -0.7734375 -0.11816406 -1.1279297 v -3.0078125 q 0 -0.2685547 0.064453125 -0.80566406 l 0.0859375 -0.6982422 q -1.1601563 0.107421875 -1.7080078 0.107421875 h -2.1054688 v -2.2021484 h 1.9873047 q 0.81640625 0 1.8261719 0.19335938 q -0.11816406 -0.6015625 -0.11816406 -0.89160156 q 0 -0.2685547 0.0859375 -0.7949219 q -0.8486328 0.171875 -1.7402344 0.171875 h -2.0410156 v -2.2988281 h 3.1367188 q 1.3212891 0 2.1914063 0.13964844 q -0.11816406 -0.5800781 -0.11816406 -0.8701172 q 0 -0.31152344 0.11816406 -0.91308594 q -0.9667969 0.107421875 -2.352539 0.107421875 h -5.961914 q 0.56933594 -1.7402344 1.9765625 -2.9541016 q 1.203125 0.9238281 2.352539 2.4277344 q 0.8486328 -0.73046875 2.0625 -1.0419922 q -0.82714844 -0.24707031 -1.4501953 -0.6982422 l -1.4501953 -1.0527344 q -0.064453125 -0.04296875 -0.48339844 -0.32226563 q 1.9550781 -1.0849609 5.4033203 -1.3320313 q -0.97753906 -0.859375 -1.4824219 -2.180664 l -0.19335938 0.064453125 q -3.7705078 1.3320313 -5.4838867 2.8466797 q -1.7133789 1.5146484 -2.4975586 4.2216797 h -2.459961 v -4.651367 q 1.6328125 0.7949219 2.9003906 1.6757813 q 0 -0.97753906 0.18261719 -1.890625 q -2.3740234 -0.73046875 -4.479492 -2.6103516 q -0.3544922 0.8808594 -1.1386719 1.5146484 q 1.1064453 0.6982422 1.1064453 1.9013672 v 4.060547 h -2.4814453 q -0.3330078 -3.9316406 -2.1376953 -6.7998047 q -0.82714844 0.71972656 -1.9980469 0.8486328 Z m 4.2109375 7.508789 h 3.9638672 v 2.2988281 h -1.6435547 q -0.24707031 0 -0.8701172 -0.053710938 q -0.19335938 -0.021484375 -0.5800781 -0.04296875 q 0.053710938 0.45117188 0.053710938 0.6875 q 0 0.27929688 -0.0859375 0.8378906 q 0.73046875 -0.107421875 1.375 -0.107421875 h 1.7509766 v 2.2021484 h -3.9638672 v -5.8222656 Z m 0.04296875 7.336914 h 12.342773 v 2.3310547 h -12.342773 v -2.3310547 Z m 5.435547 -7.336914 h 3.5234375 v 2.288086 h -3.5234375 v -2.288086 Z m 0 3.6201172 h 3.5126953 v 2.1914063 h -3.5126953 v -2.1914063 Z "/>
        </symbol>
        <symbol id="g4224C390D0350F3D36ED325AB83CB4FF" overflow="visible">
            <path d="M 0 0m 1.1 9.988 c 0 -0.5500002 0.5059999 -1.1879997 1.298 -1.1879997 c 0.638 0 1.276 0.4840002 1.276 1.1659994 c 0 0.11000061 -0.04400015 0.26399994 -0.11000013 0.4619999 c -0.065999985 0.15400028 -0.13199997 0.33000088 -0.13199997 0.5720005 c 0 0.50599957 0.7700002 1.5179996 1.826 1.5179996 c 1.1220002 0 1.8920002 -1.3859997 1.8920002 -2.7059994 c 0 -1.474 -0.0880003 -2.42 -1.2540002 -3.5200005 l -1.8699999 -1.7820001 c -2.7280002 -2.5959997 -3.102 -3.212 -3.168 -3.8059998 l 0.088 -0.704 h 8.492 c 0.26399994 0.83599997 0.5279999 2.354 0.68200016 3.608 c -0.28600025 0.13199997 -0.4840002 0.22000003 -0.9899998 0.22000003 c -0.4840002 -1.496 -1.1219997 -2.0900002 -2.112 -2.0900002 h -2.8600001 c 0.065999985 0.7039999 0.28599977 1.298 1.0120001 1.9580001 l 1.2979999 1.1879997 c 2.6179996 2.42 3.4979997 2.948 3.4979997 4.9940004 c 0 2.288 -1.9359999 3.5419998 -4.2019997 3.5419998 c -3.146 0 -4.664 -2.0679998 -4.664 -3.4320002 Z "/>
        </symbol>
        <symbol id="gE900E8015E47B147061D5A9671B546F5" overflow="visible">
            <path d="M 0 0m 5.61 -0.22 c 2.178 0 5.0379996 1.738 5.0379996 6.974 c 0 5.192 -2.7059999 6.666 -4.928 6.666 c -2.8379998 0 -5.06 -2.4639997 -5.06 -6.8640003 c 0 -3.6079998 1.738 -6.7759995 4.9500003 -6.7759995 Z m 0.10999966 12.716001 c 0.8580003 0 1.8040004 -1.408 1.8040004 -5.3020005 c 0 -5.2799997 -1.0120001 -6.49 -1.8920002 -6.49 c -1.8039999 0 -1.826 3.7399998 -1.826 5.61 c 0 5.3459997 1.0340002 6.182 1.9139998 6.182 Z "/>
        </symbol>
        <symbol id="gC8BD856D97176889CE122BB803D11AB6" overflow="visible">
            <path d="M 0 0m 7.106 4.136 c 0 -2.1560001 -0.77 -3.388 -1.98 -3.388 c -0.44000006 0 -0.8579998 0.43999994 -1.21 0.99 c -0.286 0.43999994 -0.83599997 0.8579999 -1.6499999 0.8579999 c -0.79200006 0 -1.122 -0.54999995 -1.122 -1.0339999 c 0 -0.37400007 0.32999992 -0.88000005 0.8799999 -1.166 c 0.85800004 -0.44 2.1780002 -0.616 3.234 -0.616 c 2.926 0 4.8399997 2.398 4.8399997 5.0379996 c 0 2.2000003 -1.5839996 3.8500004 -4.18 3.8500004 c -0.6819997 0 -2.0679998 -0.15400028 -2.5959997 -0.28600025 l 0.41799998 2.9040003 c 0.70399976 -0.065999985 2.266 -0.11000061 3.1899998 -0.11000061 c 0.7920003 0 1.1880002 0.044000626 2.5300002 0.13199997 l 0.41800022 1.8920002 l -0.5060005 0.28600025 c -1.606 -0.15400028 -2.4199996 -0.28600025 -3.7399998 -0.28600025 c -0.90199995 0 -1.606 0.13199997 -2.86 0.22000027 l -0.8800001 -6.556 l 0.286 -0.17600012 c 1.606 0.59400034 2.0019999 0.74800014 3.1019998 0.74800014 c 1.0340004 0 1.8260002 -1.0999999 1.8260002 -3.2999997 Z "/>
        </symbol>
        <symbol id="gC47C2F008FCEE71EFDF403DE8AE922BD" overflow="visible">
            <path d="M 0 0m 0.74121094 2.2666016 q 0.04296875 0.5800781 0.04296875 0.91308594 q 0 0.30078125 -0.064453125 0.9667969 q 0.24707031 0 0.7949219 -0.032226563 q 0.64453125 -0.053710938 0.7841797 -0.053710938 h 2.7070313 v 4.0927734 q 0 0.5371094 -0.07519531 1.5791016 l 1.0419922 -0.032226563 l 1.1386719 -0.032226563 h 4.071289 v 3.2226563 h -4.629883 q -0.54785156 -0.80566406 -0.73046875 -1.0957031 l -1.0097656 -1.6113281 q -0.2685547 -0.4296875 -1.2568359 -1.7080078 q -0.9453125 0.74121094 -2.1054688 1.0957031 q 4.0498047 3.7705078 5.145508 8.3359375 q 1.2246094 -0.6230469 2.7392578 -0.80566406 q -0.8378906 -0.6015625 -1.9765625 -2.5458984 h 10.344727 q 0.171875 0 0.9667969 0.04296875 q 0.6875 0.04296875 1.0097656 0.04296875 q -0.09667969 -0.6123047 -0.09667969 -0.89160156 q 0 -0.3330078 0.0859375 -0.9453125 q -0.22558594 0 -0.9238281 0.04296875 q -0.71972656 0.04296875 -0.9238281 0.04296875 h -4.748047 v -3.2333984 h 3.5234375 q 0.31152344 0 1.1386719 0.04296875 q 0.859375 0.032226563 0.9667969 0.032226563 q -0.07519531 -0.5908203 -0.07519531 -0.9238281 q 0 -0.27929688 0.0859375 -0.90234375 q -0.12890625 0 -0.9667969 0.04296875 q -0.80566406 0.04296875 -1.0957031 0.04296875 h -3.5878906 v -3.9316406 h 5.7578125 q 0.16113281 0 0.99902344 0.053710938 q 0.71972656 0.032226563 1.1923828 0.032226563 q -0.04296875 -0.6875 -0.04296875 -0.97753906 l 0.021484375 -0.9238281 q -1.5253906 0.11816406 -2.1699219 0.11816406 h -5.7578125 v -3.5664063 q 0 -0.859375 0.064453125 -2.008789 l -1.0849609 0.021484375 l -0.97753906 -0.021484375 q 0.107421875 1.1279297 0.107421875 1.9658203 v 3.5986328 h -8.49707 q -0.31152344 0 -1.1386719 -0.04296875 q -0.2685547 -0.0107421875 -0.7949219 -0.04296875 Z m 6.133789 1.8046875 h 4.296875 v 3.9208984 h -4.296875 v -3.9208984 Z "/>
        </symbol>
        <symbol id="g965D994FAAFE76D5E77F846DD2E851C9" overflow="visible">
            <path d="M 0 0m 1.1386719 -1.6005859 q 1.5683594 2.234375 2.116211 4.4956055 q 0.54785156 2.2612305 0.54785156 6.461426 l -0.09667969 5.5429688 l -0.021484375 0.5908203 q 0.13964844 0 0.9560547 -0.032226563 q 0.8808594 -0.04296875 1.1601563 -0.04296875 h 5.8759766 q -0.40820313 1.0097656 -1.0419922 1.9658203 q 1.0634766 0.20410156 2.0625 0.5800781 q 0.46191406 -1.3105469 1.03125 -2.5458984 h 4.629883 q 0.2578125 0 1.1708984 0.053710938 q 0.71972656 0.04296875 0.8701172 0.04296875 q -0.0859375 -0.6123047 -0.0859375 -0.91308594 q 0 -0.30078125 0.0859375 -0.90234375 q -0.22558594 0 -1.0849609 0.04296875 q -0.7949219 0.04296875 -1.0419922 0.04296875 h -12.675781 v -2.5888672 h 3.3300781 v 0.98828125 v 0.65527344 q 0 0.12890625 -0.032226563 0.5800781 q 0.9453125 -0.13964844 1.9443359 -0.22558594 q -0.24707031 -0.47265625 -0.24707031 -1.0527344 v -0.9345703 h 4.5546875 v 1.1494141 q 0 0.21484375 -0.04296875 0.6230469 l -0.04296875 0.39746094 q 1.0419922 -0.19335938 2.1376953 -0.19335938 q -0.34375 -0.515625 -0.34375 -0.91308594 v -1.0742188 h 2.0839844 q 0.45117188 0 1.8369141 0.09667969 q -0.04296875 -0.54785156 -0.04296875 -0.80566406 q 0 -0.29003906 0.04296875 -0.8378906 q -0.2685547 0 -0.91308594 0.032226563 q -0.8378906 0.04296875 -1.0097656 0.04296875 h -1.9980469 v -2.2021484 q 0 -0.3544922 0.12890625 -1.3535156 q -0.54785156 0.04296875 -0.6660156 0.04296875 h -1.0849609 h -4.5976563 q -0.171875 0 -1.203125 -0.053710938 q -0.45117188 -0.032226563 -0.54785156 -0.032226563 q 0.04296875 0.6767578 0.04296875 0.859375 v 0.90234375 v 1.8369141 h -3.3300781 q 0 -4.404297 -0.5371094 -6.928711 q -0.5371094 -2.524414 -2.1269531 -5.607422 q -0.8378906 0.6660156 -1.7939453 1.2138672 Z m 9.453125 11.322266 v -1.9980469 h 4.5546875 v 1.9980469 h -4.5546875 Z m -6.1445313 -10.7421875 q 3.4697266 0 6.4882813 1.1816406 q -0.64453125 0.4296875 -1.7509766 1.4287109 q -0.3330078 0.30078125 -1.0205078 0.859375 q 0.8808594 0.30078125 1.5898438 0.8486328 h -1.6972656 q -0.18261719 0 -0.6660156 -0.032226563 q -0.19335938 -0.0107421875 -0.55859375 -0.04296875 q 0.09667969 0.6767578 0.09667969 0.9667969 q 0 0.39746094 -0.09667969 1.0957031 q 2.234375 -0.18261719 2.975586 -0.18261719 h 5.2958984 l 3.2011719 0.0859375 q -1.5361328 -3.0507813 -4.1464844 -4.995117 q 2.7392578 -1.0419922 6.7783203 -1.2353516 q -0.9667969 -0.9667969 -1.5791016 -2.116211 q -4.823242 1.3320313 -6.6708984 2.3740234 l -1.6005859 -0.63378906 q -1.8046875 -0.73046875 -3.7919922 -1.2353516 l -1.3642578 -0.34375 q -0.5263672 1.0957031 -1.4824219 1.9765625 Z m 5.4248047 4.286133 q 0.9345703 -1.203125 2.7714844 -2.3310547 q 1.2568359 0.859375 2.5029297 2.3310547 h -5.274414 Z "/>
        </symbol>
        <symbol id="g1BF1510B05CB855CC0F4EC3E64C508C1" overflow="visible">
            <path d="M 0 0m 1.6005859 6.4560547 q 0.04296875 0.6660156 0.04296875 0.97753906 q 0 0.3544922 -0.04296875 1.03125 l 1.5361328 -0.053710938 l 1.8154297 -0.04296875 h 3.1582031 q 1.0849609 2.4707031 1.5898438 4.135742 q 1.1279297 -0.6982422 2.3847656 -1.0097656 q -0.36523438 -0.36523438 -0.73046875 -0.9453125 l -1.3642578 -2.1699219 h 6.8320313 q 1.9873047 0 3.6845703 0.12890625 q -0.04296875 -0.63378906 -0.04296875 -0.9667969 q 0 -0.32226563 0.04296875 -0.99902344 l -1.4609375 0.04296875 l -1.6113281 0.053710938 h -1.1494141 q -0.89160156 -3.1904297 -2.3955078 -4.694336 q 3.3300781 -1.1923828 6.251953 -3.040039 q -1.0849609 -0.73046875 -1.7617188 -1.8369141 q -1.0527344 1.1171875 -5.4248047 3.4375 l -0.2685547 0.13964844 q -3.1259766 -2.4384766 -8.969727 -3.7382813 l -0.3544922 -0.07519531 q -0.2578125 1.1494141 -1.4179688 2.2021484 q 5.263672 0.27929688 9.087891 2.459961 l -5.736328 1.7939453 l 2.0302734 3.3408203 h -2.6103516 q -0.5371094 0 -1.8261719 -0.0859375 q -0.4296875 -0.032226563 -1.2890625 -0.0859375 Z m 6.080078 -2.4169922 q 0.5908203 -0.16113281 0.6767578 -0.19335938 l 3.3945313 -1.1064453 q 0.04296875 -0.0107421875 0.46191406 -0.12890625 q 1.03125 1.2568359 2.1484375 4.0283203 h -5.0273438 l -1.6542969 -2.5996094 Z m -5.102539 6.466797 l 0.04296875 2.4492188 l -0.04296875 2.3632813 q 1.2460938 -0.0859375 1.5576172 -0.0859375 h 1.9658203 h 4.651367 q -0.13964844 0.47265625 -0.20410156 0.7089844 q -0.29003906 1.03125 -0.74121094 1.7080078 q 0.97753906 0 2.1591797 0.39746094 l 0.80566406 -2.8251953 h 4.2109375 q 1.71875 0 2.8359375 0.16113281 l -0.04296875 -2.4707031 l 0.032226563 -2.3203125 q -0.6015625 0.053710938 -0.90234375 0.053710938 q -0.38671875 0 -1.1494141 -0.07519531 q 0 0.31152344 0.04296875 0.89160156 q 0.04296875 0.6230469 0.04296875 0.7626953 v 1.2890625 h -13.288086 v -1.2460938 q 0 -0.171875 0.04296875 -0.80566406 q 0.032226563 -0.6660156 0.032226563 -0.89160156 q -0.5371094 0.032226563 -0.89160156 0.032226563 q -0.34375 0 -1.1601563 -0.09667969 Z "/>
        </symbol>
        <symbol id="g9846A869BA304BE52BEC5CA992C50BF4" overflow="visible">
            <path d="M 0 0m 0.6015625 9.130859 q 2.9326172 1.0419922 5.5913086 3.4804688 q 2.6586914 2.4384766 3.9370117 5.2529297 q 1.1601563 -0.5263672 2.4814453 -0.73046875 q -0.45117188 -0.2685547 -0.82714844 -0.6123047 q 2.7929688 -4.8984375 9.517578 -5.8222656 q -0.8808594 -1.1386719 -1.2568359 -2.352539 q -1.4072266 0.4189453 -2.9433594 1.2353516 q -0.04296875 -0.36523438 -0.04296875 -0.5800781 q 0 -0.22558594 0.0859375 -0.73046875 q -1.03125 0.16113281 -1.6972656 0.16113281 h -3.5126953 v -3.1044922 h 3.5878906 q 1.0634766 0 2.5673828 0.107421875 q -0.064453125 -0.6660156 -0.064453125 -1.0205078 q 0 -0.32226563 0.064453125 -0.98828125 q -1.4179688 0.11816406 -2.352539 0.11816406 h -3.8027344 v -3.7167969 h 5.7470703 q 0.9560547 0 2.0517578 0.18261719 q -0.07519531 -0.6875 -0.07519531 -1.1064453 q 0 -0.32226563 0.107421875 -1.0742188 q -1.1708984 0.13964844 -2.2558594 0.13964844 h -12.600586 l -2.868164 -0.07519531 q 0.053710938 0.6875 0.053710938 0.98828125 q 0 0.38671875 -0.053710938 1.0957031 q 1.4824219 -0.15039063 2.578125 -0.15039063 h 5.5966797 v 3.7167969 h -4.6083984 q -0.22558594 0 -0.9667969 -0.053710938 q -0.2578125 -0.0107421875 -0.7734375 -0.04296875 q 0.064453125 0.65527344 0.064453125 0.9667969 q 0 0.34375 -0.064453125 0.99902344 q 0.40820313 -0.021484375 0.6015625 -0.032226563 q 0.6982422 -0.053710938 0.99902344 -0.053710938 h 4.748047 v 3.1044922 h -3.727539 q -0.63378906 0 -1.6650391 -0.16113281 l 0.107421875 1.1923828 q -0.6015625 -0.515625 -1.9873047 -1.5576172 q -0.20410156 -0.15039063 -0.6230469 -0.47265625 q -0.64453125 0.9667969 -1.71875 1.6972656 Z m 5.091797 0.9667969 l 0.71972656 -0.021484375 l 1.2246094 -0.021484375 h 5.8867188 l 1.71875 0.021484375 l 0.98828125 0.021484375 q -3.4482422 1.8476563 -5.317383 5.5 q -2.0410156 -2.8789063 -5.220703 -5.5 Z "/>
        </symbol>
        <symbol id="gA9C38E1FB27B8D346CB6013ABA8B43F8" overflow="visible">
            <path d="M 0 0m 0.9238281 7.498047 q 1.4824219 1.5253906 2.6425781 3.8725586 q 1.1601563 2.347168 1.4716797 4.463379 q 1.2353516 -0.5371094 2.6210938 -0.8486328 q -0.98828125 -0.90234375 -2.0947266 -2.9863281 h 4.995117 v 4.8984375 q 0 0.18261719 -0.04296875 0.6660156 q -0.0107421875 0.171875 -0.04296875 0.5048828 q 1.2138672 -0.4296875 2.3310547 -0.4296875 q -0.46191406 -0.7734375 -0.46191406 -1.5576172 v -4.0927734 h 5.618164 q 0.46191406 0 1.2353516 0.04296875 l 0.7089844 0.04296875 q -0.04296875 -0.65527344 -0.04296875 -0.9345703 q 0 -0.39746094 0.04296875 -1.0849609 q -1.5146484 0.07519531 -2.116211 0.07519531 h -5.446289 v -3.6845703 h 4.243164 q 0.515625 0 1.3320313 0.04296875 l 0.7949219 0.032226563 q -0.04296875 -0.65527344 -0.04296875 -0.9667969 q 0 -0.36523438 0.04296875 -1.0419922 l -0.7949219 0.032226563 q -0.8486328 0.04296875 -1.1923828 0.04296875 h -4.3828125 v -4.930664 h 6.885742 q 0.5048828 0 1.7724609 0.0859375 q -0.04296875 -0.64453125 -0.04296875 -1.0634766 q 0 -0.2578125 0.053710938 -0.91308594 l -0.9453125 0.021484375 l -1.2783203 0.04296875 h -15.350586 l -1.4179688 -0.04296875 l -1.1064453 -0.04296875 q 0.04296875 0.6660156 0.04296875 1.0097656 q 0 0.32226563 -0.04296875 0.98828125 q 0.13964844 0 0.9238281 -0.04296875 q 0.98828125 -0.053710938 1.2890625 -0.053710938 h 7.4228516 v 4.9414063 h -4.017578 l -1.375 -0.04296875 l -0.9667969 -0.032226563 q 0.04296875 0.64453125 0.04296875 0.9238281 q 0 0.39746094 -0.04296875 1.0849609 l 1.0097656 -0.032226563 l 1.1923828 -0.04296875 h 4.1679688 v 3.6953125 h -5.6396484 q -1.0527344 -1.6542969 -1.9013672 -3.4160156 q -1.0205078 0.6123047 -2.0947266 0.7734375 Z "/>
        </symbol>
        <symbol id="g64F9A7C3F959E450B6F379927D0A8324" overflow="visible">
            <path d="M 0 0m 0.5908203 -2.0302734 q 2.2988281 1.9765625 2.980957 3.8242188 q 0.6821289 1.8476563 0.6821289 6.069336 q 0 1.0849609 -0.09667969 2.1054688 q 0.9238281 -0.18261719 1.8046875 -0.18261719 h 2.7070313 q -0.46191406 1.4179688 -1.2675781 2.7392578 q 1.03125 0.16113281 1.8798828 0.55859375 q 0.6015625 -1.4609375 1.3642578 -2.9003906 q -0.6875 -0.11816406 -1.2890625 -0.39746094 h 3.7382813 q 0.9345703 1.6435547 1.7939453 3.3945313 q 0.8808594 -0.6660156 1.9980469 -1.0205078 q -0.8486328 -0.65527344 -1.6542969 -1.8691406 q -0.11816406 -0.16113281 -0.34375 -0.5048828 h 3.6416016 q 0.9345703 0 2.008789 0.21484375 q -0.171875 -0.74121094 -0.171875 -1.1494141 q 0 -0.3330078 0.171875 -1.0527344 q -1.4394531 0.13964844 -2.0410156 0.13964844 h -12.450195 q 0 -4.286133 -0.6123047 -6.53125 q -0.5371094 -1.9658203 -2.868164 -4.586914 q -0.56933594 0.55859375 -1.4716797 0.9345703 l -0.5048828 0.21484375 Z m 1.8476563 15.167969 q 0.0859375 0.7626953 0.0859375 1.1279297 q 0 0.3330078 -0.053710938 0.9667969 q 0.89160156 -0.12890625 1.8798828 -0.12890625 h 6.8964844 q -0.4189453 1.1601563 -1.1923828 2.288086 q 1.1601563 0.11816406 2.2558594 0.5371094 q 0.47265625 -1.375 0.9345703 -2.8251953 h 5.3603516 q 1.0527344 0 2.4169922 0.29003906 q -0.12890625 -0.71972656 -0.12890625 -1.1279297 q 0 -0.34375 0.16113281 -1.0957031 q -1.3642578 0.12890625 -2.2128906 0.12890625 h -14.308594 q -1.0634766 0 -2.0947266 -0.16113281 Z "/>
        </symbol>
        <symbol id="g1582AFEBB873A512783A2E4421DBD4E6" overflow="visible">
            <path d="M 0 0m 1.1386719 8.239258 q 0.064453125 0.6767578 0.064453125 1.0957031 q 0 0.24707031 -0.064453125 0.8701172 q 0.47265625 -0.021484375 0.6982422 -0.032226563 q 0.9453125 -0.07519531 1.0849609 -0.07519531 h 4.705078 l 0.7841797 2.7285156 h -3.5449219 q -0.15039063 0 -0.9345703 -0.064453125 q -0.2578125 -0.0107421875 -0.7519531 -0.032226563 q 0.04296875 0.6982422 0.04296875 1.0742188 q 0 0.31152344 -0.04296875 0.98828125 q 0.2685547 0 0.7949219 -0.032226563 q 0.7626953 -0.064453125 0.89160156 -0.064453125 h 3.9638672 q 0.3544922 1.6113281 0.54785156 3.2978516 q 1.1494141 -0.36523438 2.4492188 -0.47265625 q -0.5908203 -0.80566406 -1.2890625 -2.8251953 h 6.348633 q 0.12890625 0 0.9238281 0.064453125 q 0.54785156 0.032226563 0.8486328 0.032226563 q -0.04296875 -0.6767578 -0.04296875 -0.98828125 q 0 -0.37597656 0.04296875 -1.0742188 q -0.6015625 0 -0.99902344 0.032226563 q -0.56933594 0.064453125 -0.6660156 0.064453125 h -6.8535156 l -0.82714844 -2.7285156 h 9.109375 q 0.24707031 0 1.203125 0.053710938 q 0.73046875 0.032226563 0.91308594 0.032226563 q -0.107421875 -0.65527344 -0.107421875 -0.9238281 q 0 -0.38671875 0.0859375 -1.0205078 q -0.5048828 0 -1.0957031 0.04296875 q -0.9453125 0.064453125 -1.0634766 0.064453125 h -9.52832 l -0.6982422 -2.008789 h 7.9384766 q 0.47265625 0 2.116211 0.16113281 q -0.064453125 -0.71972656 -0.064453125 -1.1064453 q 0 -0.40820313 0.09667969 -1.2675781 q -1.0849609 -0.20410156 -2.7177734 -1.3427734 l -3.2441406 -2.2558594 q 2.5351563 -0.9560547 4.3720703 -1.8154297 q -0.9453125 -0.81640625 -1.5683594 -1.8583984 q -1.6650391 1.2783203 -4.6030273 2.5620117 q -2.9379883 1.2836914 -5.397949 1.8100586 q 0.6982422 0.73046875 1.1494141 1.6328125 l 0.8378906 -0.30078125 q 1.3964844 -0.49414063 2.7070313 -0.98828125 l 0.98828125 -0.37597656 l 4.2753906 3.3085938 h -5.9833984 q -0.91308594 0 -2.8466797 -0.3544922 q -0.12890625 1.0097656 -0.6982422 1.9443359 q 0.8808594 0.21484375 1.1279297 0.81640625 l 0.55859375 1.4394531 h -4.3291016 q -0.12890625 0 -0.9453125 -0.064453125 q -0.515625 -0.04296875 -0.7626953 -0.04296875 Z "/>
        </symbol>
        <symbol id="g3F174AA92C2D18949D868C1F6884D19" overflow="visible">
            <path d="M 0 0m 0.91308594 3.1796875 l 2.7714844 0.6660156 v 10.269531 h -1.5576172 q -0.18261719 0 -0.65527344 -0.04296875 q -0.15039063 -0.021484375 -0.4404297 -0.04296875 q 0.032226563 0.63378906 0.032226563 0.9345703 q 0 0.3544922 -0.04296875 1.03125 l 3.3730469 -0.064453125 l 3.2226563 0.053710938 q -0.053710938 -0.6875 -0.053710938 -1.0205078 q 0 -0.31152344 0.04296875 -0.9345703 q -0.3544922 0.021484375 -0.5263672 0.04296875 q -0.5800781 0.04296875 -0.81640625 0.04296875 h -0.9345703 v -9.829102 l 2.7929688 0.81640625 q -0.11816406 -0.9238281 -0.11816406 -1.3642578 q 0 -0.21484375 0.021484375 -0.6015625 q -3.09375 -0.6982422 -6.5097656 -2.116211 q -0.171875 1.0957031 -0.6015625 2.1591797 Z m 5.5429688 -4.5976563 q 3.727539 0.63378906 5.553711 2.7285156 q 1.375 1.5683594 1.375 6.864258 v 0.91308594 q 1.0205078 -0.22558594 2.0839844 -0.27929688 q -0.34375 -1.1064453 -0.4404297 -2.3632813 q -0.2578125 -3.3085938 -0.6982422 -4.5546875 q -0.4404297 -1.2460938 -1.7509766 -2.4169922 q -1.7080078 -1.5253906 -4.404297 -2.6425781 q -0.0859375 0.12890625 -0.12890625 0.20410156 q -0.6767578 1.0419922 -1.5898438 1.546875 Z m 1.6005859 16.779297 q 0.04296875 0.6123047 0.04296875 0.89160156 q 0 0.34375 -0.04296875 0.9667969 q 1.4609375 -0.07519531 2.2128906 -0.07519531 h 9.291992 q 0.19335938 0 0.6982422 0.04296875 q 0.19335938 0.0107421875 0.56933594 0.032226563 q -0.04296875 -0.6123047 -0.04296875 -0.9238281 q 0 -0.31152344 0.04296875 -0.9345703 q -0.9453125 0.0859375 -1.3857422 0.0859375 h -4.46875 l -0.56933594 -2.9970703 h 3.3515625 q 0.71972656 0 1.4824219 0.0859375 q -0.0859375 -0.7734375 -0.0859375 -1.2998047 v -8.142578 q 0 -0.7734375 0.107421875 -1.4501953 q -0.64453125 0.0859375 -0.9560547 0.0859375 q -0.37597656 0 -1.1171875 -0.107421875 q 0.032226563 0.47265625 0.053710938 0.7089844 q 0.04296875 0.49414063 0.04296875 0.6875 v 7.8203125 h -6.3164063 v -7.6591797 q 0 -0.19335938 0.04296875 -0.9345703 q 0.032226563 -0.5908203 0.032226563 -0.74121094 q -0.6875 0.053710938 -1.0097656 0.053710938 q -0.32226563 0 -0.91308594 -0.04296875 q 0 0.20410156 0.04296875 0.81640625 q 0.04296875 0.6015625 0.04296875 0.7626953 v 8.099609 q 0 0.13964844 -0.04296875 0.65527344 q -0.021484375 0.22558594 -0.04296875 0.6875 q 0.89160156 -0.0859375 1.890625 -0.0859375 h 1.6650391 l 0.40820313 2.9970703 h -3.4267578 q -0.2578125 0 -0.90234375 -0.04296875 q -0.23632813 -0.0107421875 -0.6982422 -0.04296875 Z m 6.3916016 -14.297852 q 0.80566406 0.46191406 1.3535156 1.2675781 q 2.1484375 -2.2773438 4.995117 -4.017578 q -1.0957031 -0.54785156 -1.7832031 -1.4824219 q -1.8583984 2.3847656 -4.5654297 4.232422 Z "/>
        </symbol>
        <symbol id="g6CF5C1522C82062A62A53C9918DF152E" overflow="visible">
            <path d="M 0 0m 0.6660156 4.232422 q 1.9228516 2.4384766 3.4160156 7.057617 h -1.2246094 q -0.56933594 0 -1.6328125 -0.107421875 q 0.064453125 0.56933594 0.064453125 0.8378906 q 0 0.31152344 -0.064453125 0.8808594 q 0.9453125 -0.09667969 1.7832031 -0.09667969 h 1.2783203 v 3.3515625 q 0 0.8486328 -0.107421875 1.4716797 q 1.3535156 -0.24707031 1.9335938 -0.24707031 h 0.4189453 q -0.5800781 -0.81640625 -0.5800781 -1.6435547 v -2.9326172 h 1.0849609 q 0.7949219 0 1.6220703 0.16113281 q -0.07519531 -0.6123047 -0.07519531 -0.91308594 q 0 -0.29003906 0.064453125 -0.8701172 q -0.6875 0.107421875 -1.546875 0.107421875 h -1.1386719 v -3.6201172 q 0.6875 0.2578125 1.2353516 0.6875 q 0.9345703 -1.9121094 1.9443359 -2.975586 q -0.8808594 -0.27929688 -1.5898438 -0.859375 q -0.54785156 1.4716797 -1.6005859 2.9111328 v -8.819336 v -1.0527344 q 0 -0.15039063 0.107421875 -0.74121094 q -0.65527344 0.107421875 -0.9453125 0.107421875 q -0.3330078 0 -0.9238281 -0.07519531 q 0.107421875 0.9238281 0.107421875 1.8691406 v 9.775391 q -0.9560547 -3.8779297 -2.4169922 -6.0585938 q -0.55859375 1.2998047 -1.2138672 1.7939453 Z m 6.0585938 4.7373047 q 4.46875 2.459961 6.2197266 8.948242 q 1.0634766 -0.73046875 2.40625 -0.7949219 q -0.22558594 -0.15039063 -0.45117188 -0.34375 q 1.71875 -4.984375 6.413086 -6.4990234 q -0.9345703 -1.0205078 -1.4072266 -1.9980469 q -1.0957031 0.81640625 -2.7929688 2.1914063 q -0.04296875 -0.45117188 -0.04296875 -0.6660156 q 0 -0.24707031 0.04296875 -0.6982422 l -2.9970703 0.0107421875 l -2.975586 -0.0107421875 q 0.04296875 0.45117188 0.04296875 0.6767578 q 0 0.21484375 -0.04296875 0.65527344 q -1.2998047 -1.7509766 -2.3632813 -2.5996094 q -0.56933594 0.8486328 -2.0517578 1.1279297 Z m 4.586914 1.6328125 h 5.661133 l -0.23632813 0.2685547 q -1.4824219 1.6542969 -1.9604492 2.459961 q -0.47802734 0.80566406 -0.88623047 2.2988281 q -1.0634766 -3.0615234 -2.578125 -5.0273438 Z m -3.8027344 -12.493164 q 0.07519531 0.7089844 0.07519531 1.0527344 q 0 0.37597656 -0.07519531 1.0957031 q 0.8378906 -0.171875 1.8261719 -0.171875 h 5.5859375 l 0.11816406 0.27929688 q 1.3535156 3.0722656 2.3203125 7.2402344 l 0.11816406 0.48339844 q 1.2568359 -0.80566406 2.4384766 -1.0957031 q -0.6982422 -0.6767578 -1.2353516 -1.9550781 l -1.5146484 -3.6308594 l -0.4296875 -1.0097656 q -0.04296875 -0.107421875 -0.11816406 -0.31152344 h 1.5898438 q 1.6435547 0 2.459961 0.171875 q -0.064453125 -0.74121094 -0.064453125 -1.1494141 q 0 -0.31152344 0.064453125 -1.0205078 q -0.8808594 0.16113281 -2.2988281 0.16113281 h -8.8515625 q -0.107421875 0 -1.1279297 -0.0859375 q -0.55859375 -0.053710938 -0.8808594 -0.053710938 Z m 1.7294922 8.958984 q 0.9560547 0 1.7832031 0.20410156 q 0.0859375 -0.6767578 0.5371094 -2.4921875 l 0.55859375 -2.2666016 q 0.0107421875 -0.064453125 0.171875 -0.5908203 q -0.9453125 -0.07519531 -1.890625 -0.23632813 q -0.13964844 2.3310547 -1.1601563 5.381836 Z m 3.1259766 0.4189453 q 0.8486328 0 1.7939453 0.29003906 q 0.07519531 -0.7734375 0.5371094 -2.459961 l 0.6015625 -2.2128906 q 0.0107421875 -0.04296875 0.11816406 -0.39746094 q -1.0205078 -0.053710938 -1.9443359 -0.2685547 q 0 1.9765625 -1.1064453 5.048828 Z "/>
        </symbol>
        <symbol id="g72D60A0B84C58DF1D1A5124929B95134" overflow="visible">
            <path d="M 0 0m 0.6123047 8.894531 q 2.8144531 0.99902344 4.2001953 1.8959961 q 1.3857422 0.89697266 2.9433594 2.7231445 h -3.3085938 q -0.09667969 0 -1.4824219 -0.0859375 q -0.6875 -0.04296875 -1.2460938 -0.04296875 q 0.12890625 0.71972656 0.12890625 1.03125 q 0 0.36523438 -0.0859375 0.99902344 q 0.82714844 -0.053710938 1.2460938 -0.07519531 q 1.1601563 -0.0859375 1.5683594 -0.0859375 h 5.328125 v 1.1923828 q 0 0.064453125 -0.0859375 0.8701172 q -0.04296875 0.38671875 -0.04296875 0.6230469 q 1.5576172 -0.20410156 2.4384766 -0.20410156 q -0.45117188 -0.6875 -0.45117188 -1.2890625 v -1.1923828 h 4.876953 q 1.7509766 0 3.4160156 0.29003906 q -0.107421875 -0.73046875 -0.107421875 -1.1386719 q 0 -0.34375 0.12890625 -1.0957031 q -1.9013672 0.20410156 -2.4384766 0.20410156 h -4.006836 q 3.211914 -3.3085938 7.6376953 -3.7490234 q -0.90234375 -0.71972656 -1.6542969 -2.0195313 q -1.2246094 0.4296875 -2.4814453 1.0742188 q -0.11816406 -1.6328125 -0.11816406 -2.524414 v -3.265625 l 0.064453125 -1.1494141 q 0.021484375 -0.38671875 0.021484375 -0.8378906 l -1.1601563 0.04296875 l -1.4072266 0.04296875 h -7.111328 q -1.7080078 0 -2.9863281 -0.0859375 l 0.053710938 1.0849609 q 0.04296875 0.80566406 0.04296875 1.2353516 v 3.0185547 v 1.1601563 q 0 0.2578125 -0.0859375 1.1494141 q -1.0634766 -0.7089844 -2.1591797 -1.3642578 q -0.37597656 0.71972656 -1.6757813 1.5683594 Z m 4.3291016 0.12890625 h 4.9628906 v 4.4902344 q -2.1484375 -2.631836 -4.9628906 -4.4902344 Z m 1.3642578 -6.198242 h 8.9375 v 1.5253906 h -8.9375 v -1.5253906 Z m 0 4.6728516 v -1.5791016 h 8.9375 v 1.5791016 h -8.9375 Z m 5.4570313 6.015625 v -4.4902344 h 4.919922 q -2.4814453 1.6972656 -4.919922 4.4902344 Z m -10.21582 -15.930664 q 0.13964844 0.7734375 0.13964844 1.1708984 q 0 0.32226563 -0.107421875 0.97753906 q 2.0947266 -0.15039063 2.9433594 -0.15039063 h 12.922852 q 0.6767578 0 2.5888672 0.13964844 l -0.021484375 -0.99902344 q 0 -0.3330078 0.032226563 -1.1279297 q -0.37597656 0 -1.0634766 0.04296875 q -1.2890625 0.07519531 -1.4287109 0.07519531 h -13.1484375 q -1.7832031 0 -2.8574219 -0.12890625 Z "/>
        </symbol>
        <symbol id="g360D4A061D7D693AD6F3092BB283089A" overflow="visible">
            <path d="M 0 0m 0.9560547 -1.1386719 q 0.053710938 0.7734375 0.053710938 1.2138672 q 0 0.32226563 -0.053710938 1.0527344 q 1.9228516 -0.16113281 3.9208984 -0.16113281 l 1.3857422 0.0107421875 h 3.7060547 v 12.47168 h -2.8466797 l -4.5117188 -0.12890625 q 0.0859375 0.74121094 0.0859375 1.1171875 q 0 0.36523438 -0.0859375 1.1064453 l 5.7470703 -0.12890625 h 4.3935547 q 2.6855469 0 6.466797 0.171875 q -0.04296875 -0.7626953 -0.04296875 -1.1923828 q 0 -0.32226563 0.04296875 -1.0634766 l -4.3828125 0.12890625 h -2.8466797 v -12.482422 h 4.7373047 q 2.2988281 0 4.1464844 0.15039063 q -0.0859375 -0.7519531 -0.0859375 -1.1171875 q 0 -0.38671875 0.0859375 -1.1494141 l -6.939453 0.12890625 h -6.638672 l -6.3378906 -0.12890625 Z "/>
        </symbol>
        <symbol id="gAE1B49BD60734EBDA6A37F32ABDCB1A2" overflow="visible">
            <path d="M 0 0m 0.6875 7.508789 q 3.4267578 3.663086 4.919922 10.097656 q 1.1064453 -0.6767578 2.3632813 -1.0527344 q -0.71972656 -0.7841797 -1.7080078 -2.7607422 l -0.4296875 -0.8808594 v -14.319336 q 0 -0.24707031 0.032226563 -0.81640625 q 0.021484375 -0.24707031 0.053710938 -0.74121094 q -0.73046875 0.0859375 -1.0419922 0.0859375 q -0.31152344 0 -0.81640625 -0.032226563 q 0.021484375 0.5048828 0.053710938 0.7626953 q 0.053710938 0.5800781 0.053710938 0.7089844 v 10.849609 q -0.46191406 -0.7519531 -0.56933594 -0.9453125 l -0.9453125 -1.6865234 q -0.09667969 -0.171875 -0.47265625 -0.80566406 q -0.56933594 0.9560547 -1.4931641 1.5361328 Z m 7.326172 1.7402344 q 3.4160156 3.4697266 4.7158203 8.604492 q 1.2138672 -0.48339844 2.5458984 -0.6767578 q -1.2460938 -1.7080078 -1.890625 -3.0292969 h 5.9404297 q 0.12890625 0 0.81640625 0.064453125 q 0.24707031 0.021484375 0.73046875 0.04296875 q -0.04296875 -0.65527344 -0.04296875 -1.0957031 q 0 -0.27929688 0.053710938 -0.99902344 q -0.47265625 0 -0.859375 0.04296875 q -0.6230469 0.064453125 -0.6982422 0.064453125 h -5.0595703 v -3.2978516 h 4.232422 q 0.80566406 0 1.6865234 0.053710938 q -0.04296875 -0.65527344 -0.04296875 -0.9667969 q 0 -0.3544922 0.04296875 -1.03125 q -0.9667969 0.053710938 -1.7724609 0.053710938 h -4.1464844 v -3.040039 h 3.7705078 q 1.3320313 0 2.2128906 0.053710938 q -0.064453125 -0.6982422 -0.064453125 -1.1171875 q 0 -0.27929688 0.064453125 -0.9560547 q -0.47265625 0 -1.0742188 0.04296875 q -1.0205078 0.064453125 -1.1386719 0.064453125 h -3.78125 v -3.609375 l 0.021484375 -0.89160156 l 0.04296875 -0.81640625 q -0.55859375 0.053710938 -0.8701172 0.053710938 q -0.3330078 0 -1.0419922 -0.0859375 q 0.107421875 1.2783203 0.107421875 1.7724609 v 13.524414 q -1.1923828 -2.008789 -2.4384766 -3.9101563 q -0.91308594 0.6660156 -2.0625 1.0849609 Z "/>
        </symbol>
        <symbol id="gC7301181F553E9774F75F39AFF2EFED4" overflow="visible">
            <path d="M 0 0m 1.7724609 -2.578125 l 0.021484375 0.74121094 l 0.04296875 1.0957031 v 12.407227 q 0 1.2246094 -0.07519531 2.1376953 q 0.515625 -0.032226563 0.7626953 -0.04296875 q 0.65527344 -0.053710938 0.81640625 -0.053710938 h 0.8378906 q 0.20410156 0.6982422 0.27929688 1.9228516 l 0.07519531 0.9453125 q 0.0107421875 0.24707031 0.053710938 1.03125 q 1.1923828 -0.20410156 2.524414 -0.32226563 q -0.6767578 -0.8808594 -1.2353516 -3.1367188 l -0.107421875 -0.4404297 h 1.7294922 q 0.5048828 0 1.4716797 0.053710938 l 0.8486328 0.04296875 v -4.4902344 q 2.6748047 3.1044922 3.834961 8.561523 q 0.89160156 -0.40820313 2.4707031 -0.7841797 q -0.5371094 -0.48339844 -1.0634766 -1.5576172 l -0.5371094 -1.0957031 q -0.07519531 -0.16113281 -0.29003906 -0.63378906 h 4.0390625 q 0.8378906 0 2.2773438 0.07519531 q -0.07519531 -0.48339844 -0.09667969 -0.64453125 l -0.04296875 -0.7949219 l -0.65527344 -11.977539 q -0.11816406 -2.008789 -1.0043945 -2.6425781 q -0.88623047 -0.63378906 -3.9907227 -0.9345703 q -0.3330078 1.5039063 -1.0527344 2.3847656 q 1.3212891 -0.22558594 2.2558594 -0.22558594 q 1.1494141 0 1.5415039 0.40283203 q 0.39208984 0.40283203 0.46728516 1.6489258 l 0.6123047 11.042969 h -5.0166016 l -0.2578125 -0.54785156 q -0.9667969 -2.0410156 -1.6220703 -3.2871094 q -0.7841797 0.48339844 -1.8691406 0.73046875 v -9.571289 q 0 -0.23632813 0.04296875 -1.0097656 q 0.04296875 -0.74121094 0.04296875 -0.89160156 q -0.64453125 0.11816406 -0.9560547 0.11816406 q -0.34375 0 -0.99902344 -0.11816406 q 0.07519531 1.1171875 0.07519531 2.3955078 h -4.4365234 v -0.73046875 q 0 -0.31152344 0.04296875 -1.0205078 l 0.032226563 -0.7626953 q -0.6015625 0.07519531 -0.90234375 0.07519531 q -0.3330078 0 -0.98828125 -0.09667969 Z m 6.2626953 14.630859 h -4.458008 v -4.5546875 h 4.458008 v 4.5546875 Z m -4.458008 -10.5703125 h 4.46875 v 4.46875 h -4.46875 v -4.46875 Z m 8.518555 5.897461 q 0.9345703 0.24707031 1.5683594 0.7949219 q 0.30078125 -0.515625 0.37597656 -0.65527344 l 0.71972656 -1.375 q 0.36523438 -0.6982422 1.2890625 -2.0302734 q -0.8701172 -0.2578125 -1.890625 -0.8486328 q -0.5908203 2.1484375 -2.0625 4.114258 Z "/>
        </symbol>
        <symbol id="gB59727728B0E0EFE36451B2742BD9A25" overflow="visible">
            <path d="M 0 0m 0.5800781 -0.5908203 q 1.5576172 0.89160156 2.9541016 1.8583984 v 7.0039063 h -1.4072266 q -0.107421875 0 -0.5048828 -0.04296875 q -0.19335938 -0.0107421875 -0.5800781 -0.032226563 q 0.04296875 0.71972656 0.04296875 1.1064453 q 0 0.36523438 -0.053710938 1.1386719 q 0.65527344 -0.064453125 1.0527344 -0.064453125 h 2.3847656 q 0.12890625 0 0.5371094 0.04296875 q 0.16113281 0.0107421875 0.47265625 0.032226563 q -0.09667969 -0.89160156 -0.09667969 -1.2460938 v -8.185547 q 2.0302734 -1.0742188 3.5664063 -1.4287109 q 1.5361328 -0.3544922 4.2001953 -0.3544922 q 3.9746094 0 7.9384766 0.5800781 q -0.8701172 -0.97753906 -1.0634766 -2.352539 l -1.6220703 0.032226563 h -5.1347656 q -2.5136719 0 -4.2109375 0.32226563 q -1.4824219 0.29003906 -3.09375 1.2138672 q -0.97753906 0.56933594 -1.4716797 0.56933594 q -0.9238281 0 -2.2128906 -1.9765625 q -0.65527344 0.99902344 -1.6972656 1.7832031 Z m 1.6435547 17.294922 q 1.0419922 0.3330078 1.8369141 0.8701172 q 1.0205078 -1.9335938 2.1914063 -3.9960938 q -1.0742188 -0.37597656 -1.9980469 -0.9238281 q -1.2568359 2.8359375 -2.0302734 4.0498047 Z m 5.489258 -16.20996 q 0.032226563 0.54785156 0.04296875 0.81640625 q 0.04296875 0.64453125 0.04296875 0.8486328 v 9.109375 q 0 0.63378906 -0.11816406 1.5146484 q 0.8486328 -0.12890625 1.5361328 -0.12890625 h 3.1689453 q -0.7734375 0.7949219 -1.7832031 1.4501953 q 0.7841797 0.47265625 1.3964844 1.0205078 q 0.8701172 -0.73046875 1.6435547 -1.3642578 q 1.1386719 0.7626953 2.288086 1.6865234 h -6.9609375 q -0.171875 0 -0.71972656 -0.04296875 q -0.22558594 -0.0107421875 -0.6982422 -0.04296875 q 0.07519531 0.63378906 0.07519531 0.9238281 q 0 0.34375 -0.07519531 0.98828125 q 0.98828125 -0.12890625 1.375 -0.12890625 h 9.173828 q 1.0742188 0 2.1699219 0.12890625 q -3.2011719 -2.8466797 -5.6289063 -4.6191406 h 3.1259766 q 0.24707031 0 0.8808594 0.04296875 q 0.23632813 0.0107421875 0.7089844 0.04296875 q -0.12890625 -0.55859375 -0.12890625 -1.1064453 v -9.7109375 q 0 -0.9453125 -0.4404297 -1.2299805 q -0.4404297 -0.28466797 -2.1591797 -0.4350586 q -0.12890625 -0.0107421875 -0.37597656 -0.04296875 q -0.0859375 1.2138672 -0.6123047 2.3095703 q 0.6875 -0.15039063 1.0957031 -0.15039063 q 0.74121094 0 0.74121094 0.9667969 v 0.8486328 h -3.2978516 v -2.3095703 v -0.73046875 q 0 -0.16113281 0.107421875 -0.71972656 q -0.5908203 0.07519531 -0.90234375 0.07519531 q -0.27929688 0 -0.8808594 -0.0859375 q 0.032226563 0.46191406 0.04296875 0.6875 q 0.04296875 0.54785156 0.04296875 0.73046875 v 2.352539 h -3.0830078 v -2.0732422 q 0 -0.5800781 0.107421875 -1.6435547 q -0.6660156 0.107421875 -0.99902344 0.107421875 q -0.30078125 0 -0.90234375 -0.0859375 Z m 1.7939453 5.1884766 h 3.0830078 v 1.9765625 h -3.0830078 v -1.9765625 Z m -0.0107421875 3.3623047 h 3.09375 v 2.234375 h -3.09375 v -2.234375 Z m 4.6835938 -0.0107421875 h 3.3085938 v 2.2451172 h -3.3085938 v -2.2451172 Z m 0 -3.3408203 h 3.2978516 v 1.9658203 h -3.2978516 v -1.9658203 Z "/>
        </symbol>
        <symbol id="g9B1633F83F0B528E7D7C1F829DF79B44" overflow="visible">
            <path d="M 0 0m 0.55859375 -1.9228516 q 2.5351563 1.4287109 3.834961 3.2333984 q 1.2998047 1.8046875 1.8154297 4.5976563 h -3.3730469 q -0.6015625 0 -1.546875 -0.13964844 q 0.107421875 0.71972656 0.107421875 1.03125 q 0 0.36523438 -0.0859375 0.99902344 q 1.0742188 -0.107421875 1.4394531 -0.107421875 h 3.6845703 l 0.11816406 4.350586 h -1.8476563 l -0.74121094 -1.6005859 l -0.71972656 -1.5576172 q -0.9560547 0.4296875 -2.0302734 0.63378906 q 2.4707031 3.6845703 3.4267578 8.357422 q 1.3105469 -0.6230469 2.6640625 -0.80566406 q -0.6767578 -0.5371094 -0.9291992 -0.9453125 q -0.2524414 -0.40820313 -0.99365234 -2.180664 h 4.7695313 q 0.6230469 0 1.5146484 0.13964844 q -0.0859375 -0.71972656 -0.0859375 -1.0849609 q 0 -0.36523438 0.0859375 -1.0957031 q -0.6230469 0.12890625 -1.4179688 0.12890625 h -2.0195313 l -0.12890625 -4.3398438 h 2.234375 q 0.81640625 0 1.71875 0.13964844 q -0.09667969 -0.71972656 -0.09667969 -1.0849609 q 0 -0.32226563 0.07519531 -0.9667969 q -0.98828125 0.12890625 -1.6542969 0.12890625 h -2.3632813 q -0.0859375 -0.7089844 -0.2685547 -1.4287109 q 2.9433594 -2.7070313 4.8876953 -4.361328 q -0.98828125 -0.55859375 -1.890625 -1.375 q -1.4716797 1.9228516 -3.5234375 4.189453 q -1.0205078 -2.8251953 -4.3720703 -6.080078 q -1.0742188 0.7626953 -2.288086 1.2246094 Z m 12.332031 -0.4404297 q 0.11816406 1.5898438 0.11816406 2.1376953 v 13.954102 q 0 0.31152344 -0.11816406 1.5791016 l 3.7597656 -0.0859375 l 3.9208984 0.0859375 q -0.11816406 -0.8701172 -0.11816406 -1.4501953 v -14.458984 q 0 -0.65527344 0.18261719 -1.4931641 q -0.56933594 0.04296875 -0.9238281 0.04296875 q -0.4189453 0 -1.3535156 -0.12890625 q 0.12890625 0.859375 0.12890625 1.1494141 v 1.1923828 h -3.6845703 v -1.1923828 q 0 -0.5048828 0.15039063 -1.3320313 q -0.6875 0.053710938 -1.03125 0.053710938 q -0.34375 0 -1.03125 -0.053710938 Z m 1.9013672 4.1464844 h 3.6845703 v 11.612305 h -3.6845703 v -11.612305 Z "/>
        </symbol>
        <symbol id="g7F0E638BF3DB9F2FC9B3ACB2AE35F0DE" overflow="visible">
            <path d="M 0 0m 15.088 3.696 l -2.9279995 -0.352 l -3.9360008 3.4080002 q -1.4879994 -1.3600001 -2.896 -2.288 l 0.5120001 -0.9760001 l 4.2560005 0.464 l 0.35200024 0.43200016 l 0.7199993 -0.67200017 q 0.07999992 -0.06399989 0.07999992 -0.10399985 q 0 -0.0400002 -0.07999992 -0.07200003 q -0.35199928 -0.19200015 -0.39999962 -0.54400015 l -0.35200024 -2.4320002 l 0.62400055 -0.528 q 0.09599972 -0.08 0.09599972 -0.104 q 0 -0.023999996 -0.12800026 -0.04 l -4.896 -0.416 q 0.031999588 -0.56000006 0.031999588 -0.8000001 q 0 -0.592 -0.12799978 -0.592 q -0.04799986 0 -0.11199999 0.11199999 l -0.704 1.168 q 0.23999977 0.64000005 0.19199991 1.3760002 l -0.12799978 1.872 q -0.06400013 0.9280002 -0.22399998 1.6640003 q -1.7920003 -1.1520002 -3.9520004 -1.9840002 l -0.144 0.27200007 q 4.56 2.2879999 6.8 4.592 q -1.52 1.3280001 -1.9200001 1.5039997 v 0.1760006 l 0.8000002 0.09599972 q 0.25599957 -0.4800005 1.4399996 -1.44 q 0.9920006 1.0560002 1.7440004 2.48 q -2.9120002 -0.43200016 -3.44 -0.6079998 l -0.33600044 0.25599957 q -1.3599997 -1.9039998 -3.424 -3.5039997 l -0.20799994 0.22399998 q 2.0640001 1.9840002 3.296 3.88 q 1.2320004 1.8959999 1.2320004 2.8400002 q 0 0.12800026 -0.032000065 0.23999977 l 0.23999977 0.06400013 l 0.72000027 -1.0880003 q 0.06400013 -0.09599972 0.06400013 -0.13599968 q 0 -0.03999996 -0.14400005 -0.112000465 q -0.14400005 -0.07199955 -0.48799992 -0.6079998 q -0.34400034 -0.53600025 -1.0160003 -1.4799995 l 3.6479998 0.57599926 l 0.4800005 0.7040005 l 0.8959999 -0.8000002 q 0.07999992 -0.06400013 0.07999992 -0.10400009 q 0 -0.03999996 -0.09599972 -0.07199955 q -0.4960003 -0.20800018 -0.816 -0.73600006 q -0.8640003 -1.3920002 -1.8880005 -2.4 q 2.2080002 -1.7760005 3.3840008 -2.3680005 q 1.1759996 -0.592 3.1279993 -0.7839999 v -0.25600004 Z m -4.96 -0.27199984 l -4.256 -0.46400023 l 0.20800018 -2.912 l 3.744 0.28800002 l 0.3039999 3.0880003 Z "/>
        </symbol>
        <symbol id="g1229ABA2AC4D826C9C3E54C27EC6030D" overflow="visible">
            <path d="M 0 0m 6.6240005 11.68 q -0.032000065 -0.3039999 -0.22400045 -0.7039995 q -0.19199991 -0.40000057 -0.25600004 -0.40000057 q -0.06399965 0 -0.09599972 0.06400013 l -0.928 2.3360004 l 0.19199991 0.14400005 l 1.3120003 -1.4400005 Z m 6.4960003 0.2720003 l 0.78399944 -0.64000034 q 0.06400013 -0.047999382 0.06400013 -0.11199951 q 0 -0.06400013 -0.047999382 -0.09600067 q -0.2720003 -0.22399998 -0.4960003 -0.75199986 l -1.1199999 -2.672 q 1.8079996 -1.3920002 1.8079996 -3.1680002 q 0 -1.168 -0.73600006 -2.16 q -0.73600006 -0.992 -0.9119997 -0.992 q -0.07999992 0 -0.112000465 0.096000075 q -0.6239996 1.3440001 -1.3919992 2.272 l 0.20799923 0.19199991 l 1.4560003 -1.44 q 0.8000002 0.9280002 0.8000002 2.0960002 q 0 1.6800003 -1.552 2.96 l 0.9919996 3.184 l -2.3199997 -0.44799995 v -9.328 q 0 -2.9280002 -0.3039999 -2.9280002 q -0.048000336 0 -0.112000465 0.12800002 l -0.5439997 1.136 q 0.23999977 0.28800002 0.31200027 0.808 q 0.07199955 0.52000004 0.07199955 1.528 v 8.352 q 0 1.2799997 -0.2720003 2.4160004 l 0.22399998 0.06400013 l 0.64000034 -1.5840006 l 2.1280003 0.38399982 l 0.43200016 0.7040005 Z m -3.5840006 -5.216 q 0.07999992 -0.0800004 0.07999992 -0.11199999 q 0 -0.032000065 -0.09599972 -0.048000336 q -7.2800007 -0.7680001 -7.6320004 -0.928 l -0.6880001 0.54400015 l 3.4720004 0.4000001 l -0.5760002 2.8960004 q -0.576 -0.06400013 -1.072 -0.24000072 l -0.73600006 0.5600004 q 2.784 0.3039999 4.184 0.5120001 q 1.4000001 0.20800018 1.9120007 0.44799995 l 0.6239996 -0.4960003 q 0.06400013 -0.06400013 0.06400013 -0.09599972 q 0 -0.03200054 -0.09599972 -0.048000336 l -1.4560003 -0.19199944 l 0.44799995 -0.5440006 q 0.06400013 -0.06400013 0.06400013 -0.119999886 q 0 -0.055999756 -0.0800004 -0.119999886 q -0.25599957 -0.20800018 -0.7999997 -2.288 q 1.2959995 0.19199991 1.8240004 0.44799995 l 0.55999947 -0.57599974 Z m -2.368 3.152 l -2.8000002 -0.35200024 l 0.9920001 -1.888 q -0.15999985 -0.5120001 -0.4959998 -1.04 l 1.8080001 0.20800018 q 0.46399975 2.032 0.4959998 3.072 Z m 0.5760002 -4.5600004 l 0.72000027 -0.6879997 q 0.06400013 -0.06400013 0.06400013 -0.10400009 q 0 -0.03999996 -0.16800022 -0.15199995 q -0.16800022 -0.11199999 -0.23999977 -0.2800002 q -0.0720005 -0.16799998 -0.13600063 -0.66400003 l -0.15999985 -1.392 l 0.43200016 -0.464 q 0.048000336 -0.048000097 0.048000336 -0.08800006 q 0 -0.03999996 -0.06400013 -0.055999994 l -3.6800003 -0.48000002 q 0.031999588 -0.40000004 0.031999588 -0.704 q 0 -0.75200003 -0.15999985 -0.75200003 q -0.032000065 0 -0.06400013 0.06400001 l -0.63999987 1.088 q 0.17600012 0.48000002 0.14400005 1.1520001 l -0.07999992 1.5680001 q -0.048000097 0.832 -0.20800018 1.6800001 l 0.22399998 0.06400013 l 0.46400023 -0.8640003 l 2.96 0.4000001 l 0.5120001 0.67199993 Z m -0.3840003 -1.152 l -3.0239997 -0.38399982 l 0.17599964 -2.3040004 l 2.736 0.33600008 l 0.11199999 2.352 Z "/>
        </symbol>
        <symbol id="g10C4E627A6147761BBB52461D98E5F" overflow="visible">
            <path d="M 0 0m 5.728 11.0720005 q -0.11199999 -0.6079998 -0.23999977 -0.8800001 q -0.12800026 -0.2720003 -0.17600012 -0.2720003 q -0.04799986 0 -0.11199999 0.112000465 l -1.3600001 2.5760002 l 0.19199991 0.14400005 l 1.6960001 -1.6800003 Z m 7.376001 0.23999977 q 0.047999382 -0.047999382 0.047999382 -0.09599972 q 0 -0.048000336 -0.13599968 -0.16800022 q -0.13599968 -0.119999886 -0.19999981 -0.3920002 q -0.06400013 -0.27199936 -0.06400013 -0.79999924 v -8.208001 q 0 -1.9200001 -0.15200043 -2.3920002 q -0.15199947 -0.47200006 -0.26399994 -0.47200006 q -0.031999588 0 -0.07999992 0.06400001 q -0.5760002 0.7520001 -2.304 2.512 l 0.12800026 0.16000009 l 1.9039993 -1.2800001 q 0.14400005 0.30400002 0.14400005 1.5360001 v 8.912001 q -2.88 -0.2880001 -3.6239996 -0.38399982 q -0.74400043 -0.09600067 -1.2240005 -0.24000072 l -0.704 0.64000034 l 5.2960005 0.4960003 l 0.5760002 0.7039995 l 0.65600014 -0.592 Z m -10.0320015 -0.46399975 l 0.9120002 -0.9119997 q 0.06400013 -0.06400013 0.06400013 -0.119999886 q 0 -0.05600071 -0.048000336 -0.15200043 q -0.19199991 -0.36800003 -0.19199991 -1.2960005 v -7.1359997 q 0 -1.2960001 -0.03999996 -1.8720002 q -0.03999996 -0.57600003 -0.15199995 -0.57600003 q -0.048000097 0 -0.095999956 0.08000004 l -0.6240001 1.0400001 q 0.31999993 0.512 0.31999993 1.8080001 v 6.4000006 q 0 1.2480001 -0.055999994 1.6879997 q -0.055999994 0.44000053 -0.23199987 0.9200001 l 0.14399981 0.12800026 Z "/>
        </symbol>
        <symbol id="gC974B450045DC9C4CEA4EFFAA9183CC1" overflow="visible">
            <path d="M 0 0m 1.84 4.3040004 q 1.1680001 -0.4480002 1.7920002 -0.77600026 q 0.62399983 -0.32800007 0.98399997 -0.7279999 q 0.36000013 -0.4000001 0.44799995 -0.592 q 0.0880003 -0.19200015 0.0880003 -0.5120001 q 0 -0.32000005 -0.16800022 -0.648 q -0.16799974 -0.32800007 -0.4000001 -0.32800007 q -0.23199987 0 -0.36800003 0.120000005 q -0.13599968 0.120000005 -0.3599999 0.6 q -0.5280001 1.184 -2.224 2.592 l 0.20799994 0.2720003 Z "/>
        </symbol>
        <symbol id="g7CCDD9EAC7D6F1839C9FCCD7451D83D6" overflow="visible">
            <path d="M 0 0m 14.864 2.88 q 0.09600067 -0.07999992 0.09600067 -0.119999886 q 0 -0.0400002 -0.12800026 -0.0400002 l -6.4800005 -0.36800003 v -1.824 q 0 -1.904 -0.055999756 -2.288 q -0.055999756 -0.38399994 -0.112000465 -0.38399994 q -0.055999756 0 -0.119999886 0.095999956 l -0.8319998 1.136 q 0.5120001 0.6240001 0.5120001 3.2320004 q -4.3040004 -0.19200015 -5.92 -0.6240001 l -0.88000005 0.6400001 l 6.8 0.464 v 1.664 l -2.7680001 -0.25600004 q 0.032000065 -0.832 -0.096000195 -0.832 q -0.032000065 0 -0.07999992 0.07999992 l -0.73600006 0.99200034 q 0.24000025 0.6879997 0.22399998 1.184 l -0.07999992 2 q -0.032000065 1.0560002 -0.38400006 2.48 l 0.22400022 0.06400013 l 0.704 -1.2639999 l 4.096 0.49599934 q 0.5439997 1.3440008 0.8000002 2.1360006 q 0.25599957 0.7919998 0.25599957 1.0799999 q 0 0.2880001 -0.015999794 0.39999962 l 0.2880001 0.06400013 l 0.72000027 -0.9279995 q 0.07999992 -0.09600067 0.07999992 -0.15200043 q 0 -0.055999756 -0.07999992 -0.10400009 q -0.35200024 -0.27199936 -0.7520008 -0.9439993 q -0.39999962 -0.6720009 -0.816 -1.5040007 l 2.1920004 0.2720003 l 0.46399975 0.6079998 l 0.7680006 -0.7039995 q 0.07999992 -0.09600067 0.07999992 -0.15200043 q 0 -0.055999756 -0.07999992 -0.10400009 q -0.40000057 -0.25599957 -0.4800005 -0.8959999 l -0.36800003 -2.9440002 l 0.4800005 -0.5120001 q 0.06400013 -0.06400013 0.06400013 -0.09599972 q 0 -0.032000065 -0.09600067 -0.048000336 l -4 -0.36800003 v -1.664 q 4.7840004 0.25600004 5.76 0.70400023 l 0.75199986 -0.67200017 Z m -3.264 6.3360004 l -3.2480001 -0.38399982 v -1.6480002 q 1.1999998 0.14400005 1.7119999 0.4000001 l 0.4640007 -0.43200016 q 0.07999992 -0.06400013 0.07999992 -0.10400009 q 0 -0.03999996 -0.112000465 -0.056000233 l -2.144 -0.25599957 v -1.7120004 l 2.96 0.3039999 l 0.2880001 3.8880005 Z m -3.856 -4.2560005 v 1.6960001 q -1.6800003 -0.23999977 -1.9679999 -0.35199976 l -0.5760002 0.54400015 l 2.5440001 0.25600004 v 1.664 l -3.0080004 -0.36800003 l 0.20800018 -3.6960006 l 2.8000002 0.25600004 Z m -0.48000002 5.6000004 q -0.3039999 -1.0880003 -0.4159999 -1.0880003 q -0.048000336 0 -0.096000195 0.07999992 l -1.6160002 3.1200008 l 0.20800018 0.14400005 l 1.9200001 -2.2560005 Z "/>
        </symbol>
        <symbol id="gE7D664BA70434C910A630E93A32DC13B" overflow="visible">
            <path d="M 0 0m 6.1120005 12.032001 q 0.04799986 -0.07999992 0.04799986 -0.15200043 q 0 -0.07199955 -0.17600012 -0.15199947 q -0.17600012 -0.07999992 -0.96000004 -1.3120003 l -0.57599974 -0.8959999 v -8.656 q 0 -1.4720001 -0.04000044 -1.96 q -0.03999996 -0.48800004 -0.119999886 -0.48800004 q -0.07999992 0 -0.12799978 0.096000075 l -0.65600014 1.152 q 0.36800003 0.60800004 0.36800003 2.4320002 v 6.5920005 q -1.4880002 -2.0320005 -3.0560002 -3.4080005 l -0.16000003 0.20800018 q 2.1280003 2.256 3.408 4.5119996 q 1.2800002 2.2560005 1.1680002 3.0880003 l 0.17600012 0.09600067 l 0.704 -1.1520004 Z m 4.1920004 -1.04 q -0.048000336 -0.36800003 -0.24000072 -0.8480005 q -0.19199944 -0.47999954 -0.2880001 -0.47999954 q -0.047999382 0 -0.07999992 0.09599972 l -1.1199999 3.0880003 l 0.19200039 0.112000465 l 1.5360003 -1.9680004 Z m 3.3759995 -1.8719997 q 0.07999992 -0.06400013 0.07999992 -0.10400009 q 0 -0.03999996 -0.11199951 -0.05600071 q -5.84 -0.5439997 -7.1840005 -0.8959999 l -0.7680001 0.62400055 q 6.3200006 0.5760002 7.168 1.0240002 l 0.816 -0.592 Z m 1.0560007 -8.128001 q 0.07999992 -0.06400001 0.07999992 -0.11199999 q 0 -0.048000038 -0.14400005 -0.06400001 q -7.7760005 -0.41600004 -8.832001 -0.72 l -0.8319998 0.704 l 4.8640003 0.28800005 q 1.1040001 4.9280005 1.1040001 6.368 q 0 0.38399982 -0.06400013 0.6879997 l 0.22399998 0.09600067 l 0.8640003 -1.0720005 q 0.07999992 -0.11199999 0.07999992 -0.17600012 q 0 -0.06399965 -0.07999992 -0.12799978 q -0.20800018 -0.12799978 -0.5120001 -1.2000003 q -0.3039999 -1.072 -1.1200008 -4.544 q 2.4160004 0.19200003 3.5040007 0.544 l 0.8640003 -0.672 Z m -5.776001 2.848 q -0.23999977 -0.6240001 -0.46399975 -0.944 q -0.22399998 -0.31999993 -0.2720003 -0.31999993 q -0.047999382 0 -0.063999176 0.14399981 q -0.22400045 1.6800001 -1.0720005 4.4160004 l 0.20800018 0.096000195 l 1.6639996 -3.3920002 Z "/>
        </symbol>
        <symbol id="g734BF755A5C0E03A0C724BF29EF42D4" overflow="visible">
            <path d="M 0 0m 4 8.400001 q 0.36800003 0 0.64000034 -0.2720003 q 0.27199984 -0.27199984 0.27199984 -0.63999987 q 0 -0.36800003 -0.27199984 -0.63199997 q -0.2720003 -0.26399994 -0.64000034 -0.26399994 q -0.3679998 0 -0.63999987 0.26399994 q -0.27200007 0.26399994 -0.27200007 0.63199997 q 0 0.36800003 0.27200007 0.63999987 q 0.27200007 0.2720003 0.63999987 0.2720003 Z m 0 -5.8720007 q 0.36800003 0 0.64000034 -0.27200007 q 0.27199984 -0.27199996 0.27199984 -0.64 q 0 -0.36800003 -0.27199984 -0.632 q -0.2720003 -0.264 -0.64000034 -0.264 q -0.3679998 0 -0.63999987 0.264 q -0.27200007 0.264 -0.27200007 0.632 q 0 0.36800003 0.27200007 0.64 q 0.27200007 0.27200007 0.63999987 0.27200007 Z "/>
        </symbol>
        <symbol id="g96A56A4121FDEE71D63BBFA91F198F98" overflow="visible">
            <path d="M 0 0m 8.992001 11.6 q -0.112000465 -0.43200016 -0.3199997 -0.75199986 q -0.20800018 -0.3199997 -0.2880001 -0.3199997 q -0.07999992 0 -0.1600008 0.20799923 l -0.9119997 2.3840008 l 0.22399998 0.11199951 l 1.4560003 -1.632 Z m 4.24 -1.184 q 0.048000336 -0.06400013 0.048000336 -0.10400009 q 0 -0.03999996 -0.06400013 -0.087999344 q -0.2880001 -0.14400005 -0.67199993 -0.5840006 q -0.38399982 -0.43999958 -1.1199999 -1.4960003 l -0.25600052 0.14400005 l 0.7840004 1.7440004 l -7.984 -0.8000002 q -0.095999956 -0.67199993 -0.39199996 -1.2719998 q -0.296 -0.6000004 -0.37600017 -0.6000004 q -0.04799986 0 -0.07999992 0.096000195 l -0.352 0.8959999 q 0.73600006 0.72000027 0.91199994 2.7680006 l 0.30400014 -0.048000336 q 0.06400013 -0.72000027 0.04799986 -1.3280001 l 7.952 0.8640003 l 0.5600004 0.55999947 l 0.6879997 -0.75199986 Z m 1.1040001 -4.528 q 0.07999992 -0.06400013 0.07999992 -0.11199999 q 0 -0.048000336 -0.14400005 -0.06400013 l -3.6639996 -0.2880001 q -0.7680006 -2.048 -1.776 -3.44 q 1.408 -0.64 3.3599997 -1.7440001 q 0.112000465 -0.656 0.112000465 -1.008 q 0 -0.352 -0.05600071 -0.352 q -0.055999756 0 -0.13599968 0.047999978 q -1.856 1.5680001 -3.632 2.608 q -0.9920001 -1.12 -2.6160002 -1.96 q -1.6240001 -0.84000003 -3.2720003 -1.0960001 l -0.07999992 0.27200007 q 3.4720001 0.944 5.36 3.1200001 q -1.5359998 0.83200014 -2.992 1.216 q 0.35200024 0.65600014 0.9920001 1.9680002 q -2.224 -0.19199991 -3.584 -0.5120001 l -0.832 0.63999987 l 4.656 0.36800003 q 1.296 2.7040005 1.2639999 3.6640005 h 0.23999977 l 0.6079998 -1.0720005 q 0.048000336 -0.07999992 0.048000336 -0.119999886 q 0 -0.03999996 -0.09599972 -0.07200003 q -0.41600037 -0.12799978 -1.3280001 -2.336 q 5.568 0.43200016 6.7200003 0.8959999 l 0.76799965 -0.6239996 Z m -4.576 -0.52800035 l -3.1359997 -0.25600004 l -0.9120002 -1.8079998 q 1.3759999 -0.5120001 2.4959998 -1.0240002 q 0.97599983 1.3280001 1.552 3.088 Z "/>
        </symbol>
        <symbol id="g41F86666D2814D58440A9B96BC6C3CF4" overflow="visible">
            <path d="M 0 0m 15.120001 5.1520004 l -2.4960003 -0.30400038 l -4.7840004 5.952 q -0.84800005 -1.3759995 -1.5279999 -2.264 q -0.6799998 -0.888 -2.008 -2.224 q -1.3280003 -1.336 -3.2160003 -2.68 l -0.176 0.27200007 q 3.632 2.96 5.208 5.4560003 q 1.5760002 2.4960003 1.5760002 3.8240004 l 0.19199991 0.07999992 l 0.75199986 -1.184 q 0.048000336 -0.06400013 0.048000336 -0.112000465 q 0 -0.047999382 -0.07999992 -0.09599972 q -0.1600008 -0.09599972 -0.5440006 -0.7040005 l 2.5280008 -2.8319998 q 1.1039991 -1.2319999 1.6959991 -1.7520003 q 0.59200096 -0.52 1.1520004 -0.73600006 q 0.5600004 -0.2159996 1.6800003 -0.4239998 v -0.27199984 Z m -1.9680004 -5.1360006 q 0.06400013 -0.064 0.06400013 -0.112 q 0 -0.048000008 -0.07999992 -0.048000008 q -7.8560004 -0.25599998 -9.76 -0.72 l -0.816 0.704 l 5.0559998 0.30400002 v 2.816 q -1.632 -0.15999985 -2.2719998 -0.31999993 l -0.6880002 0.576 l 2.96 0.30400014 v 2.32 q -1.6799998 -0.17600012 -2.336 -0.3199997 l -0.65600014 0.5439997 q 4.5280004 0.36800003 5.5520005 0.84800005 l 0.67199993 -0.6079998 q 0.06400013 -0.06400013 0.06400013 -0.0880003 q 0 -0.023999691 -0.09599972 -0.03999996 l -2.6240005 -0.28799963 v -2.3040004 q 1.7279997 0.20800018 2.5279999 0.5120001 l 0.67199993 -0.60800004 q 0.06400013 -0.06399989 0.06400013 -0.119999886 q 0 -0.055999994 -0.07999992 -0.055999994 l -3.184 -0.2880001 v -2.848 q 3.1999998 0.22399999 4.16 0.57600003 l 0.8000002 -0.73600006 Z "/>
        </symbol>
        <symbol id="g2A0617BAA997EA1F09C19742C3EA5454" overflow="visible">
            <path d="M 0 0m 14.048 -0.016 q 0.112000465 -0.08 0.112000465 -0.128 q 0 -0.047999993 -0.20800018 -0.063999996 q -4.1920004 -0.16000003 -7.4800005 -0.37600005 q -3.2879999 -0.21599996 -3.8 -0.376 l -0.6880001 0.64 l 5.856 0.28800002 v 3.5360003 q -2.224 -0.24000001 -2.7999997 -0.43200016 l -0.6880002 0.59200025 l 3.488 0.31999993 v 2.8000002 q -2.416 -0.2880001 -2.7680001 -0.44799995 l -0.6079998 0.46399975 q -0.6240001 -1.5039997 -1.9680002 -3.328 l -0.24000001 0.16000009 q 1.1360002 1.6000001 1.8400002 3.5520003 q 0.704 1.9520001 0.704 3.1360002 q 0 0.23999977 -0.032000065 0.43200016 l 0.17600012 0.07999992 l 0.8000002 -1.0720005 q 0.06399965 -0.07999992 0.06399965 -0.13599968 q 0 -0.055999756 -0.09599972 -0.10400009 q -0.22399998 -0.12800026 -0.6240001 -1.1759996 q -0.4000001 -1.0480003 -0.55999994 -1.4160004 l 3.3119998 0.33599997 v 3.0879998 q 0 1.2480001 -0.055999756 1.7360001 q -0.056000233 0.48799992 -0.2800002 0.9840002 l 0.20800018 0.112000465 l 1.0560002 -0.91200066 q 0.07999992 -0.06400013 0.07999992 -0.119999886 q 0 -0.055999756 -0.06400013 -0.13599968 q -0.33600044 -0.44799995 -0.33600044 -2.1120005 v -2.5759997 q 2.8640003 0.3199997 3.3920002 0.7839999 l 0.6720009 -0.592 q 0.09599972 -0.07999992 0.09599972 -0.12800026 q 0 -0.04799986 -0.15999985 -0.06399965 l -4.000001 -0.48000002 v -2.8160005 q 2.3360004 0.25600004 3.0880003 0.55999994 l 0.62400055 -0.5439997 q 0.047999382 -0.048000336 0.047999382 -0.08800006 q 0 -0.0400002 -0.11199951 -0.055999994 l -3.6480007 -0.352 v -3.5520003 q 4.064001 0.208 4.800001 0.64000005 l 0.79999924 -0.656 Z "/>
        </symbol>
        <symbol id="gE7C7A65DF5A3C856BF52DFFDEDE821FB" overflow="visible">
            <path d="M 0 0m 14.240001 6.8160005 q 0.06400013 -0.048000336 0.06400013 -0.0880003 q 0 -0.03999996 -0.112000465 -0.055999756 l -9.375999 -0.704 q -0.22400045 -2.9760003 -0.9120002 -4.5840006 q -0.6880002 -1.608 -2.512 -3.048 l -0.15999997 0.19199991 q 1.776 1.5360001 2.352 3.4800003 q 0.5760002 1.944 0.5760002 4.1520004 q 0 1.0240002 -0.14400005 1.664 l 0.22399998 0.07999992 l 0.55999994 -1.4559999 l 2.4640002 0.2079997 l -0.8640003 2.7040005 l 0.16000032 0.09599972 l 1.296 -1.9039998 q -0.096000195 -0.33599997 -0.4000001 -0.8800001 l 1.8240004 0.14400005 q 0.6879997 2.1600003 0.6879997 3.0239997 q 0 0.14400005 -0.015999794 0.2720003 q -5.2000003 -0.46399975 -5.5360003 -0.67199993 l -0.83200026 0.6079998 l 5.088001 0.43200016 l -1.3760004 2.7680006 l 0.12799978 0.09599972 l 1.7760005 -1.632 q -0.09600067 -0.592 -0.38400078 -1.2160006 q 3.2480001 0.25600052 3.920001 0.72000027 l 0.7199993 -0.6079998 q 0.09600067 -0.07999992 0.09600067 -0.119999886 q 0 -0.03999996 -0.14400005 -0.05600071 l -3.1520004 -0.2880001 l 0.65600014 -0.86399937 q 0.031999588 -0.048000336 0.031999588 -0.09600067 q 0 -0.047999382 -0.06400013 -0.07999992 q -0.25599957 -0.14400005 -0.46399975 -0.55200005 q -0.20800018 -0.408 -0.72000027 -1.7039995 q 1.7440004 0.14399958 2.552 0.24799967 q 0.80800056 0.10400009 1.2720003 0.31200027 l 0.72000027 -0.592 Z "/>
        </symbol>
        <symbol id="g1CBFAB624C7CB95170E22F7BBE9BBD6B" overflow="visible">
            <path d="M 0 0m 14.400001 8.096001 q 0.112000465 -0.112000465 0.112000465 -0.15200043 q 0 -0.03999996 -0.1600008 -0.10400009 q -0.15999985 -0.06399965 -0.67199993 -0.6799998 q -0.5120001 -0.6160002 -1.1679993 -1.6399999 l -0.25600052 0.15999985 l 0.8480005 2.0160003 l -9.744001 -1.0080004 q -0.16000009 -0.8800001 -0.5280001 -1.6399999 q -0.3679998 -0.7600002 -0.48000002 -0.7600002 q -0.04799986 0 -0.07999992 0.096000195 l -0.30400002 1.1040001 q 1.0400001 0.94399977 1.12 2.6559997 l 0.3360002 0.03200054 q 0.015999794 -0.24000025 0.02399993 -0.4880004 q 0.007999897 -0.24799967 -0.02399993 -0.47199965 l 4.544 0.48000002 l -0.75199986 1.7759995 l 0.19199991 0.1760006 l 0.67199945 -0.72000027 q 0.9920006 1.5839996 1.4400005 2.5200005 q 0.44799995 0.9359999 0.4960003 1.7679996 l 0.22399998 0.048000336 l 0.5439997 -1.0880003 q 0.03200054 -0.06400013 0.03200054 -0.112000465 q 0 -0.047999382 -0.112000465 -0.087999344 q -0.11199951 -0.03999996 -0.39999962 -0.38399982 q -0.2880001 -0.34400082 -0.62400055 -0.9040003 q 3.3760004 0.35200024 3.8880005 0.75199986 l 0.72000027 -0.5439997 q 0.063999176 -0.06400013 0.063999176 -0.09600067 q 0 -0.031999588 -0.07999992 -0.047999382 l -3.696 -0.43200016 l 1.0720005 -1.2639999 q -0.1760006 -0.38399982 -0.36800003 -0.5840006 q -0.19200039 -0.19999981 -0.23200035 -0.19999981 q -0.03999996 0 -0.07199955 0.06400013 l -0.73600006 1.9519997 l -0.8959999 -0.11199951 q -0.30400085 -0.4960003 -1.0720005 -1.4239998 l 0.2880001 -0.33600044 q -0.14400005 -0.46400023 -0.3039999 -0.6880002 l 4.8480005 0.52800035 l 0.49599934 0.6239996 l 0.8000002 -0.78399944 Z m -6 2.4320002 q 0.07999992 -0.07999992 0.07999992 -0.119999886 q 0 -0.040000916 -0.12800026 -0.05600071 l -2.736 -0.3359995 l 0.94400024 -1.184 q -0.17600012 -0.44799995 -0.35200024 -0.6800003 q -0.17600012 -0.23199987 -0.2079997 -0.23199987 q -0.032000065 0 -0.06400013 0.06399965 l -0.704 1.9840002 l -1.0240002 -0.11199951 q -1.296 -1.552 -2.704 -2.7360005 l -0.19200003 0.22399998 q 1.664 1.6320004 2.68 3.2000003 q 1.0160003 1.5679998 1.144 2.6560001 l 0.17600012 0.015999794 l 0.592 -1.1359997 q 0.032000065 -0.06400013 0.032000065 -0.112000465 q 0 -0.047999382 -0.10400009 -0.10400009 q -0.10400009 -0.055999756 -0.32000017 -0.31199932 q -0.2159996 -0.25600052 -0.9039998 -1.1680002 q 2.6399999 0.2880001 3.3120003 0.6079998 l 0.48000002 -0.46399975 Z m 3.1680002 -8.080001 q 0.06400013 -0.06400013 0.06400013 -0.120000124 q 0 -0.055999994 -0.15200043 -0.15199995 q -0.15200043 -0.095999956 -0.26399994 -0.30400002 q -0.112000465 -0.20800006 -0.20800018 -0.67200005 l -0.19199944 -0.96000004 l 0.5439997 -0.49600002 q 0.06400013 -0.08000001 0.06400013 -0.120000005 q 0 -0.03999999 -0.112000465 -0.055999994 l -5.28 -0.368 q 0 -1.04 -0.055999756 -1.184 q -0.056000233 -0.14399993 -0.096000195 -0.14399993 q -0.03999996 0 -0.07200003 0.04799986 l -0.67199993 0.96000016 q 0.2880001 0.352 0.2880001 1.776 v 3.632 q 0 1.3280001 -0.27199984 2.3520002 l 0.2079997 0.096000195 l 0.65600014 -0.96000004 l 3.7760005 0.38399982 l 0.55999947 0.65600014 l 0.6880007 -0.5760002 q 0.11199951 -0.07999992 0.11199951 -0.13600016 q 0 -0.055999756 -0.14400005 -0.14399958 q -0.14400005 -0.0880003 -0.22399998 -0.26400042 q -0.07999992 -0.17599964 -0.17599964 -0.6079998 l -0.15999985 -0.7680001 l 0.4319992 -0.43199992 q 0.08000088 -0.08000016 0.08000088 -0.13600016 q 0 -0.055999994 -0.12800026 -0.07200003 l -4.8000007 -0.48000002 v -1.2639999 l 4.464 0.576 l 0.44799995 0.5280001 l 0.62400055 -0.592 Z m -1.5360003 3.248 l -4.0000005 -0.43199968 v -1.5680003 l 3.808 0.46400023 l 0.19200039 1.5359998 Z m 0.44799995 -3.744 l -4.4480004 -0.49600005 v -1.7280002 l 4.1280007 0.35200003 l 0.3199997 1.8720001 Z "/>
        </symbol>
        <symbol id="g8D30563C1EFDCF5C4AAC3DEF4A465EB8" overflow="visible">
            <path d="M 0 0m 14.704 0.16000001 q 0.07999992 -0.06400001 0.07999992 -0.11200001 q 0 -0.048 -0.11199951 -0.048 q -8.848001 -0.544 -9.488001 -0.75200003 l -0.76799965 0.592 l 5.248 0.32000002 v 2.5440001 q -1.8400002 -0.12800002 -2.3520002 -0.36800003 l -0.73600006 0.576 l 3.0880003 0.3039999 v 2.3200002 l -1.8240004 -0.15999985 q 0 -0.3840003 -0.06399965 -0.592 q -0.06400013 -0.20800018 -0.10400009 -0.20800018 q -0.03999996 0 -0.08799982 0.07999992 l -0.5760002 1.0560002 q 0.3039999 0.33599997 0.25600004 1.5359998 l -0.11199999 2.8320007 q -0.04799986 1.0879993 -0.32000017 2.1279993 l 0.20800018 0.07999992 l 0.55999994 -1.0079994 l 4.9280005 0.55999947 l 0.39999962 0.7040005 l 0.75199986 -0.6239996 q 0.06400013 -0.048000336 0.06400013 -0.10400009 q 0 -0.05600071 -0.07999992 -0.10400009 q -0.3039999 -0.15999985 -0.4159994 -1.3120003 l -0.35200024 -3.9040003 l 0.49599934 -0.4959998 q 0.06400013 -0.06400013 0.06400013 -0.10400009 q 0 -0.03999996 -0.07999992 -0.03999996 l -3.12 -0.2720003 v -2.304 q 2.368 0.24000001 2.7200003 0.464 l 0.592 -0.5280001 q 0.07999992 -0.06399989 0.07999992 -0.10399985 q 0 -0.0400002 -0.112000465 -0.055999994 l -3.2799997 -0.2880001 v -2.5760002 q 2.896 0.17600003 3.7919998 0.5120001 l 0.65600014 -0.544 Z m -2 11.168 l -2.448 -0.25599957 v -2.224 q 1.1359997 0.19199944 1.552 0.39999962 l 0.592 -0.44799995 q 0.06400013 -0.047999382 0.06400013 -0.087999344 q 0 -0.03999996 -0.09599972 -0.05600071 l -2.1120005 -0.25599957 v -2.288 l 2.0959997 0.23999977 l 0.35200024 4.976 Z m -3.04 -2.5599995 v 2.2399998 l -2 -0.20800018 l 0.07999992 -2.288 l 1.9200001 0.25600052 Z m 0 -2.7040005 v 2.2560005 q -1.1359997 -0.19200039 -1.4720001 -0.32000065 l -0.44799995 0.38400078 l 0.09599972 -2.4800005 l 1.8240004 0.15999985 Z m -2.7200003 -1.9839997 q -4.8 -2.2560003 -4.8640003 -2.4160004 l -0.9280001 0.48000002 l 2.8000002 1.072 v 3.296 q -1.168 -0.17599964 -1.6800001 -0.36800003 l -0.64 0.5120001 l 2.3200002 0.33599997 v 3.1360002 q -1.2160001 -0.15999985 -1.744 -0.3199997 l -0.7040001 0.5279999 q 3.9520001 0.36800003 4.48 0.72000027 l 0.54400015 -0.43200016 q 0.07999992 -0.06400013 0.07999992 -0.112000465 q 0 -0.047999382 -0.096000195 -0.063999176 l -1.9839997 -0.25600052 v -3.104 q 0.8959999 0.14400005 1.296 0.35200024 l 0.46399975 -0.43200016 q 0.048000336 -0.04799986 0.048000336 -0.096000195 q 0 -0.04799986 -0.096000195 -0.06399965 l -1.7119999 -0.25600004 v -3.1680002 l 2.336 0.8959999 l 0.07999992 -0.23999977 Z "/>
        </symbol>
        <symbol id="gEE7A8134C5BBABBAD454416F69F54F26" overflow="visible">
            <path d="M 0 0m 9.376 13.152 l 0.96000004 -0.78399944 q 0.06400013 -0.048000336 0.06400013 -0.0880003 q 0 -0.03999996 -0.048000336 -0.0880003 q -0.14400005 -0.14400005 -0.23999977 -0.63199997 q -0.09599972 -0.48799992 -0.09599972 -1.0799999 v -6.7680006 q 0 -2.128 -0.1760006 -2.128 q -0.031999588 0 -0.06400013 0.06400001 l -0.7039995 1.248 q 0.35200024 0.65600014 0.35200024 1.8079998 v 5.5360007 q 0 1.5839996 -0.06400013 1.9679995 q -0.06400013 0.38400078 -0.23999977 0.8480005 l 0.25599957 0.09599972 Z m 5.4400005 -13.856001 l -3.408 -0.448 l -5.456001 4.88 q -1.9200001 -3.456 -4.656 -5.392 l -0.19199991 0.22399998 q 2.736 2.24 4.4160004 5.552 l -0.6080003 0.54400015 q -1.296 1.1360002 -1.5999999 1.2480001 q -0.83200026 -1.3439999 -1.5360001 -2.176 l -0.2240001 0.12800002 q 1.6800001 2.496 2.584 4.7840004 q 0.9040003 2.288 0.9040003 3.2800007 q 0 0.19199944 -0.032000065 0.5439997 l 0.17599964 0.11199951 l 0.9120002 -1.1999998 q 0.032000065 -0.048000336 0.032000065 -0.0880003 q 0 -0.03999996 -0.11199999 -0.11199951 q -0.11199999 -0.0720005 -0.20800018 -0.19999981 q -0.09599972 -0.12800026 -0.47199965 -1.0799999 q -0.3760004 -0.9520006 -0.888 -1.9440007 l 2.512 0.4959998 l 0.36800003 0.64000034 l 0.86399984 -0.64000034 q 0.06400013 -0.063999176 0.06400013 -0.09599972 q 0 -0.031999588 -0.15200043 -0.12800026 q -0.15199995 -0.09599972 -0.29599953 -0.3359995 q -0.14400005 -0.24000025 -0.33600044 -0.7680001 q -0.5439997 -1.5840001 -1.296 -2.9760003 l 2.9440007 -2.5279999 q 1.3599997 -1.168 2.5999994 -1.592 q 1.2400007 -0.424 3.0960007 -0.504 v -0.22400004 Z m -7.8560004 8.624001 l -2.7840004 -0.5120001 q -0.20799994 -0.4000001 -0.73600006 -1.3120003 l 0.75200033 0.096000195 q 0.3199997 -0.55999994 1.5359998 -1.6480002 q 0.7680001 1.5999999 1.2320004 3.3760004 Z m 6.7360005 -1.0080004 q 0.063999176 -0.4000001 0.063999176 -0.86399984 q 0 -0.46400023 -0.09599972 -0.46400023 q -0.031999588 0 -0.09599972 0.048000336 l -3.184 2.8960004 l 0.11199951 0.17599964 l 3.2000008 -1.7920003 Z "/>
        </symbol>
        <symbol id="g9801BC3E51F2976ADE8BBA51812A6F0F" overflow="visible">
            <path d="M 0 0m 6.8160005 0.91200006 q -1.1520004 0.047999978 -3.2400002 0.047999978 q -2.0880003 0 -3.2240002 -0.047999978 q 0.304 0.62399995 0.768 1.1840001 q 0.4640001 0.55999994 1.7200001 1.816 q 1.256 1.256 1.9440002 2.304 q 0.6879997 1.0480003 0.6879997 2.0240006 q 0 0.97599983 -0.55200005 1.5199995 q -0.55200005 0.5440006 -1.3599999 0.5440006 q -0.8080001 0 -1.464 -0.55200005 q -0.65600014 -0.55200005 -0.9120002 -1.5600004 l -0.36799997 0.06400013 q 0.25599998 1.3599997 1.072 2.1119995 q 0.8160001 0.7520008 1.9840001 0.7520008 q 1.1680002 0 1.9840002 -0.776 q 0.816 -0.776 0.816 -1.8640003 q 0 -1.0880003 -0.7600002 -2.04 q -0.75999975 -0.95200014 -2.296 -2.3760004 q -0.816 -0.75199986 -2.032 -2.256 h 3.7600002 q 0.6079998 0 0.85599995 0.21600008 q 0.24800014 0.21599984 0.52 0.9359999 h 0.33599997 l -0.23999977 -2.0479999 Z "/>
        </symbol>
        <symbol id="gC3790EEAA867F5768255A1591D7CB727" overflow="visible">
            <path d="M 0 0m 3.7920003 11.120001 q 1.3280001 0 2.296 -1.4960003 q 0.96799994 -1.4960003 0.96799994 -3.7120004 q 0 -2.216 -0.96799994 -3.7120001 q -0.96799994 -1.496 -2.272 -1.496 q -1.3040001 0 -2.296 1.48 q -0.9920001 1.4800003 -0.9920001 3.7120004 q 0 2.2319999 0.96800005 3.7280002 q 0.9680002 1.4960003 2.2960002 1.4960003 Z m 0 -10.048 q 1.184 0 1.6399999 1.1760001 q 0.45600033 1.1760001 0.45600033 3.6560001 q 0 2.4800005 -0.45600033 3.6640005 q -0.45599985 1.184 -1.6399999 1.184 q -1.1840003 0 -1.6400001 -1.184 q -0.4560001 -1.184 -0.4560001 -3.6640005 q 0 -4.8320003 2.0960002 -4.8320003 Z "/>
        </symbol>
        <symbol id="gC8C1B54A6F8B650B3E8A66BCFA9CF6E2" overflow="visible">
            <path d="M 0 0m 6.0800004 10.016001 h -2.2400002 q -1.2480001 0 -1.3759999 -0.048000336 l -0.20800018 -2.928 q 0.704 0.33599997 1.44 0.33599997 q 1.3120003 0 2.224 -0.8959999 q 0.9120002 -0.8960004 0.9120002 -2.4160004 q 0 -1.52 -1.1279998 -2.44 q -1.1280003 -0.92 -2.5680003 -0.92 q -0.79999995 0 -1.4720001 0.27999997 q -0.672 0.28000003 -0.672 0.616 q 0 0.16000009 0.144 0.32800007 q 0.14400005 0.1680001 0.36 0.1680001 q 0.21600008 0 0.32800007 -0.08000016 q 1.1200001 -0.84799993 1.8080001 -0.84799993 q 0.89600015 0 1.5839999 0.776 q 0.6880002 0.7759999 0.6880002 1.864 q 0 1.0880003 -0.6960001 1.8320003 q -0.6960001 0.74399996 -1.72 0.74399996 q -0.44799995 0 -0.8399999 -0.14400005 q -0.3920002 -0.14400005 -0.5680001 -0.4000001 h -0.27200007 l 0.3039999 5.120001 h 1.7440002 q 1.2 0 1.5839999 0.031999588 q 0.3840003 0.031999588 0.54400015 0.23999977 h 0.24000025 l -0.14400005 -1.2159996 Z "/>
        </symbol>
        <symbol id="g2F45B63F0B2FD49FC21594883E3DFA2C" overflow="visible">
            <path d="M 0 0m 14.800001 4.3840003 q 0.15999985 -0.12800026 0.15999985 -0.16800022 q 0 -0.03999996 -0.20800018 -0.055999756 l -5.92 -0.4480002 v -3.6160002 q 0 -2.032 -0.19200039 -2.032 q -0.048000336 0 -0.09599972 0.096000075 l -0.64000034 1.12 q 0.15999985 0.30400002 0.22399998 0.744 q 0.06400013 0.44000003 0.06400013 1.512 v 2.1280003 q -3.04 -0.24000001 -4.488 -0.38400006 q -1.4480002 -0.14400005 -2.0240002 -0.352 l -0.72 0.704 l 3.9680004 0.3039999 l -0.14400005 2.1920002 q -0.06400013 1.1199999 -0.35200024 1.7600002 l 0.19199991 0.11199951 l 0.65600014 -0.9119997 l 2.9120002 0.32000017 v 2.4640002 q -1.664 -0.23999977 -2.4640002 -0.43200016 l -0.5120001 0.36800003 q -1.2639999 -1.7919998 -2.96 -3.328 l -0.17599988 0.19199991 q 1.7279999 1.9039998 2.7840002 3.7199998 q 1.0559998 1.816 1.0559998 2.8080006 q 0 0.12800026 -0.015999794 0.23999977 l 0.20800018 0.06400013 l 0.75199986 -1.1199999 q 0.032000065 -0.048000336 0.032000065 -0.09600067 q 0 -0.047999382 -0.07999992 -0.11199951 q -0.19199991 -0.12800026 -0.54400015 -0.7040005 q -0.54400015 -0.9119997 -0.8800001 -1.3919992 q 5.408 0.67199993 6.7040005 1.1679993 l 0.6879997 -0.592 q 0.07999992 -0.07999992 0.07999992 -0.119999886 q 0 -0.03999996 -0.11199951 -0.055999756 l -3.92 -0.5120001 v -2.4960003 q 2.4639997 0.30400038 2.9919996 0.5440006 l 0.65600014 -0.5600004 q 0.09599972 -0.07999992 0.09599972 -0.119999886 q 0 -0.03999996 -0.1279993 -0.056000233 l -3.6160002 -0.36800003 v -2.672 q 4.4639997 0.38399982 5.1519995 0.7680001 l 0.81600094 -0.6240001 Z m -6.6080008 -0.19199991 v 2.6560001 l -2.848 -0.2720003 l 0.14400005 -2.592 l 2.704 0.20800018 Z "/>
        </symbol>
        <symbol id="g52905CBD3EF93518397558FEBA1CF7AA" overflow="visible">
            <path d="M 0 0m 1.5040001 8.784 l -0.288 0.15999985 q 0.464 1.1040001 1.1200001 1.6400003 q 0.6559999 0.53600025 1.5999999 0.53600025 q 0.944 0 1.5520003 -0.5120001 q 0.6079998 -0.5120001 0.6079998 -1.1360006 q 0 -0.6239996 -0.4239998 -1.184 q -0.42400026 -0.55999994 -1.3200002 -1.2319999 q 1.1680002 0.07999992 1.8720002 -0.6879997 q 0.704 -0.7680001 0.704 -1.9680004 q 0 -1.552 -1.1040001 -2.624 q -1.1040001 -1.072 -2.8160002 -1.072 q -1.1040001 0 -1.6800001 0.264 q -0.57600003 0.26400006 -0.57600003 0.61600006 q 0 0.15999997 0.15200001 0.296 q 0.15199995 0.13599992 0.37600005 0.13599992 q 0.22399998 0 0.576 -0.288 q 0.896 -0.67200005 1.5200001 -0.67200005 q 0.9760001 0 1.72 0.84800005 q 0.74399996 0.84800005 0.74399996 2.0640001 q 0 1.0239999 -0.5039997 1.688 q -0.5040002 0.66400003 -1.2720003 0.66400003 q -0.592 0 -1.2160001 -0.5439997 l -0.17599988 0.3039999 q 0.31999993 0.2880001 0.704 0.57599974 q 1.76 1.296 1.76 2.1920004 q 0 0.65600014 -0.44000006 1.0559998 q -0.44000006 0.40000057 -1.0879998 0.40000057 q -0.64800024 0 -1.2160001 -0.3920002 q -0.5680001 -0.3920002 -0.88800013 -1.1280003 Z "/>
        </symbol>
        <symbol id="gE6041399C016F10845619EAEBA850A8F" overflow="visible">
            <path d="M 0 0m 11.0720005 12.832001 l 0.72000027 -0.62400055 q 0.07999992 -0.063999176 0.07999992 -0.11199951 q 0 -0.048000336 -0.15999985 -0.20800018 q -0.15999985 -0.15999985 -0.22399998 -0.31200027 q -0.06400013 -0.15199947 -0.06400013 -0.43999958 v -9.68 q 0 -1.9200001 -0.19999981 -2.3920002 q -0.20000076 -0.47200006 -0.2720003 -0.47200006 q -0.0720005 0 -0.13599968 0.06400001 q -0.91200066 1.1040001 -2.2400007 2.256 l 0.12800026 0.20799994 l 1.9040003 -1.2 q 0.17599964 0.44800004 0.17599964 1.4240001 v 10.208001 l -4.624 -0.52800083 q 0.015999794 -1.3119993 -0.032000065 -2.6239996 q 2.6879997 0.36800003 3.12 0.6399994 l 0.43200016 -0.46399975 q 0.06400013 -0.06400013 0.06400013 -0.11199951 q 0 -0.048000336 -0.11199951 -0.06400013 l -3.5360007 -0.52800035 q -0.032000065 -0.8800001 -0.22399998 -2.4639997 q 3.0400004 0.43199968 3.4880004 0.704 l 0.4960003 -0.48000002 q 0.063999176 -0.06400013 0.063999176 -0.11199999 q 0 -0.048000336 -0.09599972 -0.06400013 l -4.0160003 -0.5760002 q -0.3039999 -1.984 -1.184 -3.3600001 q -0.8799999 -1.376 -2.704 -2.624 l -0.176 0.19200003 q 2.4320002 2 3.1120005 4.3360004 q 0.6799998 2.336 0.6799998 6.3040004 q 0 1.7600002 -0.3039999 3.12 l 0.2079997 0.09599972 l 0.65600014 -1.4239998 l 4.48 0.5439997 l 0.4960003 0.7680006 Z "/>
        </symbol>
        <symbol id="gBB3FA51FA9C3C8A26ECC872317F7B817" overflow="visible">
            <path d="M 0 0m 5.6800003 0.91200006 q -0.83200026 0.047999978 -1.8720002 0.047999978 q -1.04 0 -1.872 -0.047999978 v 0.25600004 l 0.832 0.14399993 q 0.55999994 0.11199999 0.55999994 0.6240001 v 7.9040003 l -1.904 -1.2319994 l -0.22399998 0.3039999 q 1.1040001 0.72000027 2.6560001 2.2080002 h 0.5280001 v -9.184001 q 0 -0.544 0.55999994 -0.6400001 l 0.73600006 -0.1279999 v -0.25600004 Z "/>
        </symbol>
        <symbol id="gC5A51F12F827BFC6678B5E665485935A" overflow="visible">
            <path d="M 0 0m 11.008 11.68 l 0.65600014 -0.592 q 0.12800026 -0.11199951 0.12800026 -0.17599964 q 0 -0.06400013 -0.16800022 -0.25600052 q -0.16800022 -0.19199944 -0.23200035 -0.37599945 q -0.06400013 -0.18400002 -0.07999992 -0.63199997 l -0.2880001 -5.8080006 q -0.19199944 -4.112 -0.47999954 -4.112 q -0.06400013 0 -0.1760006 0.24000001 l -0.5439997 1.12 l -4.4960003 -0.49600005 q 0 -0.64 -0.06399965 -0.864 q -0.06400013 -0.224 -0.12000036 -0.224 q -0.055999756 0 -0.18400002 0.24000001 l -0.55999994 1.088 q 0.35200024 0.30400002 0.3039999 2.5920002 l -0.09599972 5.2480006 q 0 1.632 -0.2880001 2.9279995 l 0.27199984 0.09599972 l 0.5600004 -1.3599997 l 5.2799997 0.62400055 l 0.5760002 0.7199993 Z m -0.35200024 -1.2959995 l -5.44 -0.60800076 l 0.048000336 -3.6639996 q 3.0239997 0.36800003 3.9360003 0.73600006 l 0.55999947 -0.4960003 q 0.07999992 -0.07999992 0.07999992 -0.13600016 q 0 -0.055999756 -0.15999985 -0.07200003 l -4.416 -0.55999994 l 0.06399965 -4.432 q 3.7440004 0.43200004 3.9360008 0.6240001 l 0.67199993 -0.5120001 q 0.39999962 0.352 0.47999954 2.5760002 l 0.23999977 6.5440006 Z "/>
        </symbol>
        <symbol id="g1A9712F415A24B1C253A8E0DF6915F0D" overflow="visible">
            <path d="M 0 0m 14 3.92 h -14 v 0.42000008 h 14 v -0.42000008 Z "/>
        </symbol>
        <symbol id="gFAF9635903C3C667DEE2DBC041B79F8" overflow="visible">
            <path d="M 0 0m 4.9700003 0.81200004 q -0.36400032 0.013999999 -0.7839999 0.027999997 q -0.4200003 0.013999999 -0.85400033 0.013999999 q -0.43400002 0 -0.85399985 -0.013999999 q -0.42000008 -0.013999999 -0.78400016 -0.027999997 v 0.22399998 l 0.72800016 0.12600005 q 0.49 0.11199999 0.49 0.546 v 6.9160004 l -1.6660001 -1.0780005 l -0.19599998 0.26600027 q 0.93799996 0.6160002 2.324 1.9320002 h 0.46200013 v -8.036 q 0 -0.47600007 0.49 -0.56000006 l 0.64400005 -0.11199999 v -0.22399998 Z "/>
        </symbol>
    </defs>
</svg>
