<svg class="typst-doc" viewBox="0 0 595.2755905511812 841.8897637795276" width="595.2755905511812pt" height="841.8897637795276pt" xmlns="http://www.w3.org/2000/svg" xmlns:xlink="http://www.w3.org/1999/xlink" xmlns:h5="http://www.w3.org/1999/xhtml">
    <path class="typst-shape" fill="#ffffff" fill-rule="nonzero" d="M 0 0v 841.8898 h 595.2756 v -841.8898 Z "/>
    <g>
        <g class="typst-group" transform="matrix(1 0 0 1 401.0468031496063 104.88188976377953)">
            <g>
                <g class="typst-text" transform="matrix(1 0 0 -1 4.263999999999995 13.76)">
                    <use xlink:href="#g96A56A4121FDEE71D63BBFA91F198F98" x="0" y="0" fill="#000000" fill-rule="nonzero"/>
                    <use xlink:href="#g41F86666D2814D58440A9B96BC6C3CF4" x="16" y="0" fill="#000000" fill-rule="nonzero"/>
                    <use xlink:href="#g2A0617BAA997EA1F09C19742C3EA5454" x="32" y="0" fill="#000000" fill-rule="nonzero"/>
                    <use xlink:href="#gE7C7A65DF5A3C856BF52DFFDEDE821FB" x="48" y="0" fill="#000000" fill-rule="nonzero"/>
                    <use xlink:href="#g1CBFAB624C7CB95170E22F7BBE9BBD6B" x="64" y="0" fill="#000000" fill-rule="nonzero"/>
                    <use xlink:href="#g8D30563C1EFDCF5C4AAC3DEF4A465EB8" x="80" y="0" fill="#000000" fill-rule="nonzero"/>
                    <use xlink:href="#gEE7A8134C5BBABBAD454416F69F54F26" x="96" y="0" fill="#000000" fill-rule="nonzero"/>
                </g>
                <g class="typst-text" transform="matrix(1 0 0 -1 0 43.12)">
                    <use xlink:href="#g9801BC3E51F2976ADE8BBA51812A6F0F" x="0" y="0" fill="#000000" fill-rule="nonzero"/>
                    <use xlink:href="#gC3790EEAA867F5768255A1591D7CB727" x="7.504" y="0" fill="#000000" fill-rule="nonzero"/>
                    <use xlink:href="#g9801BC3E51F2976ADE8BBA51812A6F0F" x="15.008" y="0" fill="#000000" fill-rule="nonzero"/>
                    <use xlink:href="#gC8C1B54A6F8B650B3E8A66BCFA9CF6E2" x="22.512" y="0" fill="#000000" fill-rule="nonzero"/>
                    <use xlink:href="#g2F45B63F0B2FD49FC21594883E3DFA2C" x="34.016" y="0" fill="#000000" fill-rule="nonzero"/>
                    <use xlink:href="#g52905CBD3EF93518397558FEBA1CF7AA" x="54.016" y="0" fill="#000000" fill-rule="nonzero"/>
                    <use xlink:href="#gE6041399C016F10845619EAEBA850A8F" x="65.52" y="0" fill="#000000" fill-rule="nonzero"/>
                    <use xlink:href="#gBB3FA51FA9C3C8A26ECC872317F7B817" x="85.52" y="0" fill="#000000" fill-rule="nonzero"/>
                    <use xlink:href="#gC8C1B54A6F8B650B3E8A66BCFA9CF6E2" x="93.024" y="0" fill="#000000" fill-rule="nonzero"/>
                    <use xlink:href="#gC5A51F12F827BFC6678B5E665485935A" x="104.528" y="0" fill="#000000" fill-rule="nonzero"/>
                </g>
            </g>
        </g>
        <g class="typst-text" transform="matrix(1 0 0 -1 464.0088031496063 772.2496850393701)">
            <use xlink:href="#g1A9712F415A24B1C253A8E0DF6915F0D" x="0" y="0" fill="#000000" fill-rule="nonzero"/>
            <use xlink:href="#g931E3974F8D312241F7A040E15949708" x="17.5" y="0" fill="#000000" fill-rule="nonzero"/>
            <use xlink:href="#g1A9712F415A24B1C253A8E0DF6915F0D" x="27.566" y="0" fill="#000000" fill-rule="nonzero"/>
        </g>
    </g>
    <defs id="glyph">
        <symbol id="g96A56A4121FDEE71D63BBFA91F198F98" overflow="visible">
            <path d="M 0 0m 8.992001 11.6 q -0.112000465 -0.43200016 -0.3199997 -0.75199986 q -0.20800018 -0.3199997 -0.2880001 -0.3199997 q -0.07999992 0 -0.1600008 0.20799923 l -0.9119997 2.3840008 l 0.22399998 0.11199951 l 1.4560003 -1.632 Z m 4.24 -1.184 q 0.048000336 -0.06400013 0.048000336 -0.10400009 q 0 -0.03999996 -0.06400013 -0.087999344 q -0.2880001 -0.14400005 -0.67199993 -0.5840006 q -0.38399982 -0.43999958 -1.1199999 -1.4960003 l -0.25600052 0.14400005 l 0.7840004 1.7440004 l -7.984 -0.8000002 q -0.095999956 -0.67199993 -0.39199996 -1.2719998 q -0.296 -0.6000004 -0.37600017 -0.6000004 q -0.04799986 0 -0.07999992 0.096000195 l -0.352 0.8959999 q 0.73600006 0.72000027 0.91199994 2.7680006 l 0.30400014 -0.048000336 q 0.06400013 -0.72000027 0.04799986 -1.3280001 l 7.952 0.8640003 l 0.5600004 0.55999947 l 0.6879997 -0.75199986 Z m 1.1040001 -4.528 q 0.07999992 -0.06400013 0.07999992 -0.11199999 q 0 -0.048000336 -0.14400005 -0.06400013 l -3.6639996 -0.2880001 q -0.7680006 -2.048 -1.776 -3.44 q 1.408 -0.64 3.3599997 -1.7440001 q 0.112000465 -0.656 0.112000465 -1.008 q 0 -0.352 -0.05600071 -0.352 q -0.055999756 0 -0.13599968 0.047999978 q -1.856 1.5680001 -3.632 2.608 q -0.9920001 -1.12 -2.6160002 -1.96 q -1.6240001 -0.84000003 -3.2720003 -1.0960001 l -0.07999992 0.27200007 q 3.4720001 0.944 5.36 3.1200001 q -1.5359998 0.83200014 -2.992 1.216 q 0.35200024 0.65600014 0.9920001 1.9680002 q -2.224 -0.19199991 -3.584 -0.5120001 l -0.832 0.63999987 l 4.656 0.36800003 q 1.296 2.7040005 1.2639999 3.6640005 h 0.23999977 l 0.6079998 -1.0720005 q 0.048000336 -0.07999992 0.048000336 -0.119999886 q 0 -0.03999996 -0.09599972 -0.07200003 q -0.41600037 -0.12799978 -1.3280001 -2.336 q 5.568 0.43200016 6.7200003 0.8959999 l 0.76799965 -0.6239996 Z m -4.576 -0.52800035 l -3.1359997 -0.25600004 l -0.9120002 -1.8079998 q 1.3759999 -0.5120001 2.4959998 -1.0240002 q 0.97599983 1.3280001 1.552 3.088 Z "/>
        </symbol>
        <symbol id="g41F86666D2814D58440A9B96BC6C3CF4" overflow="visible">
            <path d="M 0 0m 15.120001 5.1520004 l -2.4960003 -0.30400038 l -4.7840004 5.952 q -0.84800005 -1.3759995 -1.5279999 -2.264 q -0.6799998 -0.888 -2.008 -2.224 q -1.3280003 -1.336 -3.2160003 -2.68 l -0.176 0.27200007 q 3.632 2.96 5.208 5.4560003 q 1.5760002 2.4960003 1.5760002 3.8240004 l 0.19199991 0.07999992 l 0.75199986 -1.184 q 0.048000336 -0.06400013 0.048000336 -0.112000465 q 0 -0.047999382 -0.07999992 -0.09599972 q -0.1600008 -0.09599972 -0.5440006 -0.7040005 l 2.5280008 -2.8319998 q 1.1039991 -1.2319999 1.6959991 -1.7520003 q 0.59200096 -0.52 1.1520004 -0.73600006 q 0.5600004 -0.2159996 1.6800003 -0.4239998 v -0.27199984 Z m -1.9680004 -5.1360006 q 0.06400013 -0.064 0.06400013 -0.112 q 0 -0.048000008 -0.07999992 -0.048000008 q -7.8560004 -0.25599998 -9.76 -0.72 l -0.816 0.704 l 5.0559998 0.30400002 v 2.816 q -1.632 -0.15999985 -2.2719998 -0.31999993 l -0.6880002 0.576 l 2.96 0.30400014 v 2.32 q -1.6799998 -0.17600012 -2.336 -0.3199997 l -0.65600014 0.5439997 q 4.5280004 0.36800003 5.5520005 0.84800005 l 0.67199993 -0.6079998 q 0.06400013 -0.06400013 0.06400013 -0.0880003 q 0 -0.023999691 -0.09599972 -0.03999996 l -2.6240005 -0.28799963 v -2.3040004 q 1.7279997 0.20800018 2.5279999 0.5120001 l 0.67199993 -0.60800004 q 0.06400013 -0.06399989 0.06400013 -0.119999886 q 0 -0.055999994 -0.07999992 -0.055999994 l -3.184 -0.2880001 v -2.848 q 3.1999998 0.22399999 4.16 0.57600003 l 0.8000002 -0.73600006 Z "/>
        </symbol>
        <symbol id="g2A0617BAA997EA1F09C19742C3EA5454" overflow="visible">
            <path d="M 0 0m 14.048 -0.016 q 0.112000465 -0.08 0.112000465 -0.128 q 0 -0.047999993 -0.20800018 -0.063999996 q -4.1920004 -0.16000003 -7.4800005 -0.37600005 q -3.2879999 -0.21599996 -3.8 -0.376 l -0.6880001 0.64 l 5.856 0.28800002 v 3.5360003 q -2.224 -0.24000001 -2.7999997 -0.43200016 l -0.6880002 0.59200025 l 3.488 0.31999993 v 2.8000002 q -2.416 -0.2880001 -2.7680001 -0.44799995 l -0.6079998 0.46399975 q -0.6240001 -1.5039997 -1.9680002 -3.328 l -0.24000001 0.16000009 q 1.1360002 1.6000001 1.8400002 3.5520003 q 0.704 1.9520001 0.704 3.1360002 q 0 0.23999977 -0.032000065 0.43200016 l 0.17600012 0.07999992 l 0.8000002 -1.0720005 q 0.06399965 -0.07999992 0.06399965 -0.13599968 q 0 -0.055999756 -0.09599972 -0.10400009 q -0.22399998 -0.12800026 -0.6240001 -1.1759996 q -0.4000001 -1.0480003 -0.55999994 -1.4160004 l 3.3119998 0.33599997 v 3.0879998 q 0 1.2480001 -0.055999756 1.7360001 q -0.056000233 0.48799992 -0.2800002 0.9840002 l 0.20800018 0.112000465 l 1.0560002 -0.91200066 q 0.07999992 -0.06400013 0.07999992 -0.119999886 q 0 -0.055999756 -0.06400013 -0.13599968 q -0.33600044 -0.44799995 -0.33600044 -2.1120005 v -2.5759997 q 2.8640003 0.3199997 3.3920002 0.7839999 l 0.6720009 -0.592 q 0.09599972 -0.07999992 0.09599972 -0.12800026 q 0 -0.04799986 -0.15999985 -0.06399965 l -4.000001 -0.48000002 v -2.8160005 q 2.3360004 0.25600004 3.0880003 0.55999994 l 0.62400055 -0.5439997 q 0.047999382 -0.048000336 0.047999382 -0.08800006 q 0 -0.0400002 -0.11199951 -0.055999994 l -3.6480007 -0.352 v -3.5520003 q 4.064001 0.208 4.800001 0.64000005 l 0.79999924 -0.656 Z "/>
        </symbol>
        <symbol id="gE7C7A65DF5A3C856BF52DFFDEDE821FB" overflow="visible">
            <path d="M 0 0m 14.240001 6.8160005 q 0.06400013 -0.048000336 0.06400013 -0.0880003 q 0 -0.03999996 -0.112000465 -0.055999756 l -9.375999 -0.704 q -0.22400045 -2.9760003 -0.9120002 -4.5840006 q -0.6880002 -1.608 -2.512 -3.048 l -0.15999997 0.19199991 q 1.776 1.5360001 2.352 3.4800003 q 0.5760002 1.944 0.5760002 4.1520004 q 0 1.0240002 -0.14400005 1.664 l 0.22399998 0.07999992 l 0.55999994 -1.4559999 l 2.4640002 0.2079997 l -0.8640003 2.7040005 l 0.16000032 0.09599972 l 1.296 -1.9039998 q -0.096000195 -0.33599997 -0.4000001 -0.8800001 l 1.8240004 0.14400005 q 0.6879997 2.1600003 0.6879997 3.0239997 q 0 0.14400005 -0.015999794 0.2720003 q -5.2000003 -0.46399975 -5.5360003 -0.67199993 l -0.83200026 0.6079998 l 5.088001 0.43200016 l -1.3760004 2.7680006 l 0.12799978 0.09599972 l 1.7760005 -1.632 q -0.09600067 -0.592 -0.38400078 -1.2160006 q 3.2480001 0.25600052 3.920001 0.72000027 l 0.7199993 -0.6079998 q 0.09600067 -0.07999992 0.09600067 -0.119999886 q 0 -0.03999996 -0.14400005 -0.05600071 l -3.1520004 -0.2880001 l 0.65600014 -0.86399937 q 0.031999588 -0.048000336 0.031999588 -0.09600067 q 0 -0.047999382 -0.06400013 -0.07999992 q -0.25599957 -0.14400005 -0.46399975 -0.55200005 q -0.20800018 -0.408 -0.72000027 -1.7039995 q 1.7440004 0.14399958 2.552 0.24799967 q 0.80800056 0.10400009 1.2720003 0.31200027 l 0.72000027 -0.592 Z "/>
        </symbol>
        <symbol id="g1CBFAB624C7CB95170E22F7BBE9BBD6B" overflow="visible">
            <path d="M 0 0m 14.400001 8.096001 q 0.112000465 -0.112000465 0.112000465 -0.15200043 q 0 -0.03999996 -0.1600008 -0.10400009 q -0.15999985 -0.06399965 -0.67199993 -0.6799998 q -0.5120001 -0.6160002 -1.1679993 -1.6399999 l -0.25600052 0.15999985 l 0.8480005 2.0160003 l -9.744001 -1.0080004 q -0.16000009 -0.8800001 -0.5280001 -1.6399999 q -0.3679998 -0.7600002 -0.48000002 -0.7600002 q -0.04799986 0 -0.07999992 0.096000195 l -0.30400002 1.1040001 q 1.0400001 0.94399977 1.12 2.6559997 l 0.3360002 0.03200054 q 0.015999794 -0.24000025 0.02399993 -0.4880004 q 0.007999897 -0.24799967 -0.02399993 -0.47199965 l 4.544 0.48000002 l -0.75199986 1.7759995 l 0.19199991 0.1760006 l 0.67199945 -0.72000027 q 0.9920006 1.5839996 1.4400005 2.5200005 q 0.44799995 0.9359999 0.4960003 1.7679996 l 0.22399998 0.048000336 l 0.5439997 -1.0880003 q 0.03200054 -0.06400013 0.03200054 -0.112000465 q 0 -0.047999382 -0.112000465 -0.087999344 q -0.11199951 -0.03999996 -0.39999962 -0.38399982 q -0.2880001 -0.34400082 -0.62400055 -0.9040003 q 3.3760004 0.35200024 3.8880005 0.75199986 l 0.72000027 -0.5439997 q 0.063999176 -0.06400013 0.063999176 -0.09600067 q 0 -0.031999588 -0.07999992 -0.047999382 l -3.696 -0.43200016 l 1.0720005 -1.2639999 q -0.1760006 -0.38399982 -0.36800003 -0.5840006 q -0.19200039 -0.19999981 -0.23200035 -0.19999981 q -0.03999996 0 -0.07199955 0.06400013 l -0.73600006 1.9519997 l -0.8959999 -0.11199951 q -0.30400085 -0.4960003 -1.0720005 -1.4239998 l 0.2880001 -0.33600044 q -0.14400005 -0.46400023 -0.3039999 -0.6880002 l 4.8480005 0.52800035 l 0.49599934 0.6239996 l 0.8000002 -0.78399944 Z m -6 2.4320002 q 0.07999992 -0.07999992 0.07999992 -0.119999886 q 0 -0.040000916 -0.12800026 -0.05600071 l -2.736 -0.3359995 l 0.94400024 -1.184 q -0.17600012 -0.44799995 -0.35200024 -0.6800003 q -0.17600012 -0.23199987 -0.2079997 -0.23199987 q -0.032000065 0 -0.06400013 0.06399965 l -0.704 1.9840002 l -1.0240002 -0.11199951 q -1.296 -1.552 -2.704 -2.7360005 l -0.19200003 0.22399998 q 1.664 1.6320004 2.68 3.2000003 q 1.0160003 1.5679998 1.144 2.6560001 l 0.17600012 0.015999794 l 0.592 -1.1359997 q 0.032000065 -0.06400013 0.032000065 -0.112000465 q 0 -0.047999382 -0.10400009 -0.10400009 q -0.10400009 -0.055999756 -0.32000017 -0.31199932 q -0.2159996 -0.25600052 -0.9039998 -1.1680002 q 2.6399999 0.2880001 3.3120003 0.6079998 l 0.48000002 -0.46399975 Z m 3.1680002 -8.080001 q 0.06400013 -0.06400013 0.06400013 -0.120000124 q 0 -0.055999994 -0.15200043 -0.15199995 q -0.15200043 -0.095999956 -0.26399994 -0.30400002 q -0.112000465 -0.20800006 -0.20800018 -0.67200005 l -0.19199944 -0.96000004 l 0.5439997 -0.49600002 q 0.06400013 -0.08000001 0.06400013 -0.120000005 q 0 -0.03999999 -0.112000465 -0.055999994 l -5.28 -0.368 q 0 -1.04 -0.055999756 -1.184 q -0.056000233 -0.14399993 -0.096000195 -0.14399993 q -0.03999996 0 -0.07200003 0.04799986 l -0.67199993 0.96000016 q 0.2880001 0.352 0.2880001 1.776 v 3.632 q 0 1.3280001 -0.27199984 2.3520002 l 0.2079997 0.096000195 l 0.65600014 -0.96000004 l 3.7760005 0.38399982 l 0.55999947 0.65600014 l 0.6880007 -0.5760002 q 0.11199951 -0.07999992 0.11199951 -0.13600016 q 0 -0.055999756 -0.14400005 -0.14399958 q -0.14400005 -0.0880003 -0.22399998 -0.26400042 q -0.07999992 -0.17599964 -0.17599964 -0.6079998 l -0.15999985 -0.7680001 l 0.4319992 -0.43199992 q 0.08000088 -0.08000016 0.08000088 -0.13600016 q 0 -0.055999994 -0.12800026 -0.07200003 l -4.8000007 -0.48000002 v -1.2639999 l 4.464 0.576 l 0.44799995 0.5280001 l 0.62400055 -0.592 Z m -1.5360003 3.248 l -4.0000005 -0.43199968 v -1.5680003 l 3.808 0.46400023 l 0.19200039 1.5359998 Z m 0.44799995 -3.744 l -4.4480004 -0.49600005 v -1.7280002 l 4.1280007 0.35200003 l 0.3199997 1.8720001 Z "/>
        </symbol>
        <symbol id="g8D30563C1EFDCF5C4AAC3DEF4A465EB8" overflow="visible">
            <path d="M 0 0m 14.704 0.16000001 q 0.07999992 -0.06400001 0.07999992 -0.11200001 q 0 -0.048 -0.11199951 -0.048 q -8.848001 -0.544 -9.488001 -0.75200003 l -0.76799965 0.592 l 5.248 0.32000002 v 2.5440001 q -1.8400002 -0.12800002 -2.3520002 -0.36800003 l -0.73600006 0.576 l 3.0880003 0.3039999 v 2.3200002 l -1.8240004 -0.15999985 q 0 -0.3840003 -0.06399965 -0.592 q -0.06400013 -0.20800018 -0.10400009 -0.20800018 q -0.03999996 0 -0.08799982 0.07999992 l -0.5760002 1.0560002 q 0.3039999 0.33599997 0.25600004 1.5359998 l -0.11199999 2.8320007 q -0.04799986 1.0879993 -0.32000017 2.1279993 l 0.20800018 0.07999992 l 0.55999994 -1.0079994 l 4.9280005 0.55999947 l 0.39999962 0.7040005 l 0.75199986 -0.6239996 q 0.06400013 -0.048000336 0.06400013 -0.10400009 q 0 -0.05600071 -0.07999992 -0.10400009 q -0.3039999 -0.15999985 -0.4159994 -1.3120003 l -0.35200024 -3.9040003 l 0.49599934 -0.4959998 q 0.06400013 -0.06400013 0.06400013 -0.10400009 q 0 -0.03999996 -0.07999992 -0.03999996 l -3.12 -0.2720003 v -2.304 q 2.368 0.24000001 2.7200003 0.464 l 0.592 -0.5280001 q 0.07999992 -0.06399989 0.07999992 -0.10399985 q 0 -0.0400002 -0.112000465 -0.055999994 l -3.2799997 -0.2880001 v -2.5760002 q 2.896 0.17600003 3.7919998 0.5120001 l 0.65600014 -0.544 Z m -2 11.168 l -2.448 -0.25599957 v -2.224 q 1.1359997 0.19199944 1.552 0.39999962 l 0.592 -0.44799995 q 0.06400013 -0.047999382 0.06400013 -0.087999344 q 0 -0.03999996 -0.09599972 -0.05600071 l -2.1120005 -0.25599957 v -2.288 l 2.0959997 0.23999977 l 0.35200024 4.976 Z m -3.04 -2.5599995 v 2.2399998 l -2 -0.20800018 l 0.07999992 -2.288 l 1.9200001 0.25600052 Z m 0 -2.7040005 v 2.2560005 q -1.1359997 -0.19200039 -1.4720001 -0.32000065 l -0.44799995 0.38400078 l 0.09599972 -2.4800005 l 1.8240004 0.15999985 Z m -2.7200003 -1.9839997 q -4.8 -2.2560003 -4.8640003 -2.4160004 l -0.9280001 0.48000002 l 2.8000002 1.072 v 3.296 q -1.168 -0.17599964 -1.6800001 -0.36800003 l -0.64 0.5120001 l 2.3200002 0.33599997 v 3.1360002 q -1.2160001 -0.15999985 -1.744 -0.3199997 l -0.7040001 0.5279999 q 3.9520001 0.36800003 4.48 0.72000027 l 0.54400015 -0.43200016 q 0.07999992 -0.06400013 0.07999992 -0.112000465 q 0 -0.047999382 -0.096000195 -0.063999176 l -1.9839997 -0.25600052 v -3.104 q 0.8959999 0.14400005 1.296 0.35200024 l 0.46399975 -0.43200016 q 0.048000336 -0.04799986 0.048000336 -0.096000195 q 0 -0.04799986 -0.096000195 -0.06399965 l -1.7119999 -0.25600004 v -3.1680002 l 2.336 0.8959999 l 0.07999992 -0.23999977 Z "/>
        </symbol>
        <symbol id="gEE7A8134C5BBABBAD454416F69F54F26" overflow="visible">
            <path d="M 0 0m 9.376 13.152 l 0.96000004 -0.78399944 q 0.06400013 -0.048000336 0.06400013 -0.0880003 q 0 -0.03999996 -0.048000336 -0.0880003 q -0.14400005 -0.14400005 -0.23999977 -0.63199997 q -0.09599972 -0.48799992 -0.09599972 -1.0799999 v -6.7680006 q 0 -2.128 -0.1760006 -2.128 q -0.031999588 0 -0.06400013 0.06400001 l -0.7039995 1.248 q 0.35200024 0.65600014 0.35200024 1.8079998 v 5.5360007 q 0 1.5839996 -0.06400013 1.9679995 q -0.06400013 0.38400078 -0.23999977 0.8480005 l 0.25599957 0.09599972 Z m 5.4400005 -13.856001 l -3.408 -0.448 l -5.456001 4.88 q -1.9200001 -3.456 -4.656 -5.392 l -0.19199991 0.22399998 q 2.736 2.24 4.4160004 5.552 l -0.6080003 0.54400015 q -1.296 1.1360002 -1.5999999 1.2480001 q -0.83200026 -1.3439999 -1.5360001 -2.176 l -0.2240001 0.12800002 q 1.6800001 2.496 2.584 4.7840004 q 0.9040003 2.288 0.9040003 3.2800007 q 0 0.19199944 -0.032000065 0.5439997 l 0.17599964 0.11199951 l 0.9120002 -1.1999998 q 0.032000065 -0.048000336 0.032000065 -0.0880003 q 0 -0.03999996 -0.11199999 -0.11199951 q -0.11199999 -0.0720005 -0.20800018 -0.19999981 q -0.09599972 -0.12800026 -0.47199965 -1.0799999 q -0.3760004 -0.9520006 -0.888 -1.9440007 l 2.512 0.4959998 l 0.36800003 0.64000034 l 0.86399984 -0.64000034 q 0.06400013 -0.063999176 0.06400013 -0.09599972 q 0 -0.031999588 -0.15200043 -0.12800026 q -0.15199995 -0.09599972 -0.29599953 -0.3359995 q -0.14400005 -0.24000025 -0.33600044 -0.7680001 q -0.5439997 -1.5840001 -1.296 -2.9760003 l 2.9440007 -2.5279999 q 1.3599997 -1.168 2.5999994 -1.592 q 1.2400007 -0.424 3.0960007 -0.504 v -0.22400004 Z m -7.8560004 8.624001 l -2.7840004 -0.5120001 q -0.20799994 -0.4000001 -0.73600006 -1.3120003 l 0.75200033 0.096000195 q 0.3199997 -0.55999994 1.5359998 -1.6480002 q 0.7680001 1.5999999 1.2320004 3.3760004 Z m 6.7360005 -1.0080004 q 0.063999176 -0.4000001 0.063999176 -0.86399984 q 0 -0.46400023 -0.09599972 -0.46400023 q -0.031999588 0 -0.09599972 0.048000336 l -3.184 2.8960004 l 0.11199951 0.17599964 l 3.2000008 -1.7920003 Z "/>
        </symbol>
        <symbol id="g9801BC3E51F2976ADE8BBA51812A6F0F" overflow="visible">
            <path d="M 0 0m 6.8160005 0.91200006 q -1.1520004 0.047999978 -3.2400002 0.047999978 q -2.0880003 0 -3.2240002 -0.047999978 q 0.304 0.62399995 0.768 1.1840001 q 0.4640001 0.55999994 1.7200001 1.816 q 1.256 1.256 1.9440002 2.304 q 0.6879997 1.0480003 0.6879997 2.0240006 q 0 0.97599983 -0.55200005 1.5199995 q -0.55200005 0.5440006 -1.3599999 0.5440006 q -0.8080001 0 -1.464 -0.55200005 q -0.65600014 -0.55200005 -0.9120002 -1.5600004 l -0.36799997 0.06400013 q 0.25599998 1.3599997 1.072 2.1119995 q 0.8160001 0.7520008 1.9840001 0.7520008 q 1.1680002 0 1.9840002 -0.776 q 0.816 -0.776 0.816 -1.8640003 q 0 -1.0880003 -0.7600002 -2.04 q -0.75999975 -0.95200014 -2.296 -2.3760004 q -0.816 -0.75199986 -2.032 -2.256 h 3.7600002 q 0.6079998 0 0.85599995 0.21600008 q 0.24800014 0.21599984 0.52 0.9359999 h 0.33599997 l -0.23999977 -2.0479999 Z "/>
        </symbol>
        <symbol id="gC3790EEAA867F5768255A1591D7CB727" overflow="visible">
            <path d="M 0 0m 3.7920003 11.120001 q 1.3280001 0 2.296 -1.4960003 q 0.96799994 -1.4960003 0.96799994 -3.7120004 q 0 -2.216 -0.96799994 -3.7120001 q -0.96799994 -1.496 -2.272 -1.496 q -1.3040001 0 -2.296 1.48 q -0.9920001 1.4800003 -0.9920001 3.7120004 q 0 2.2319999 0.96800005 3.7280002 q 0.9680002 1.4960003 2.2960002 1.4960003 Z m 0 -10.048 q 1.184 0 1.6399999 1.1760001 q 0.45600033 1.1760001 0.45600033 3.6560001 q 0 2.4800005 -0.45600033 3.6640005 q -0.45599985 1.184 -1.6399999 1.184 q -1.1840003 0 -1.6400001 -1.184 q -0.4560001 -1.184 -0.4560001 -3.6640005 q 0 -4.8320003 2.0960002 -4.8320003 Z "/>
        </symbol>
        <symbol id="gC8C1B54A6F8B650B3E8A66BCFA9CF6E2" overflow="visible">
            <path d="M 0 0m 6.0800004 10.016001 h -2.2400002 q -1.2480001 0 -1.3759999 -0.048000336 l -0.20800018 -2.928 q 0.704 0.33599997 1.44 0.33599997 q 1.3120003 0 2.224 -0.8959999 q 0.9120002 -0.8960004 0.9120002 -2.4160004 q 0 -1.52 -1.1279998 -2.44 q -1.1280003 -0.92 -2.5680003 -0.92 q -0.79999995 0 -1.4720001 0.27999997 q -0.672 0.28000003 -0.672 0.616 q 0 0.16000009 0.144 0.32800007 q 0.14400005 0.1680001 0.36 0.1680001 q 0.21600008 0 0.32800007 -0.08000016 q 1.1200001 -0.84799993 1.8080001 -0.84799993 q 0.89600015 0 1.5839999 0.776 q 0.6880002 0.7759999 0.6880002 1.864 q 0 1.0880003 -0.6960001 1.8320003 q -0.6960001 0.74399996 -1.72 0.74399996 q -0.44799995 0 -0.8399999 -0.14400005 q -0.3920002 -0.14400005 -0.5680001 -0.4000001 h -0.27200007 l 0.3039999 5.120001 h 1.7440002 q 1.2 0 1.5839999 0.031999588 q 0.3840003 0.031999588 0.54400015 0.23999977 h 0.24000025 l -0.14400005 -1.2159996 Z "/>
        </symbol>
        <symbol id="g2F45B63F0B2FD49FC21594883E3DFA2C" overflow="visible">
            <path d="M 0 0m 14.800001 4.3840003 q 0.15999985 -0.12800026 0.15999985 -0.16800022 q 0 -0.03999996 -0.20800018 -0.055999756 l -5.92 -0.4480002 v -3.6160002 q 0 -2.032 -0.19200039 -2.032 q -0.048000336 0 -0.09599972 0.096000075 l -0.64000034 1.12 q 0.15999985 0.30400002 0.22399998 0.744 q 0.06400013 0.44000003 0.06400013 1.512 v 2.1280003 q -3.04 -0.24000001 -4.488 -0.38400006 q -1.4480002 -0.14400005 -2.0240002 -0.352 l -0.72 0.704 l 3.9680004 0.3039999 l -0.14400005 2.1920002 q -0.06400013 1.1199999 -0.35200024 1.7600002 l 0.19199991 0.11199951 l 0.65600014 -0.9119997 l 2.9120002 0.32000017 v 2.4640002 q -1.664 -0.23999977 -2.4640002 -0.43200016 l -0.5120001 0.36800003 q -1.2639999 -1.7919998 -2.96 -3.328 l -0.17599988 0.19199991 q 1.7279999 1.9039998 2.7840002 3.7199998 q 1.0559998 1.816 1.0559998 2.8080006 q 0 0.12800026 -0.015999794 0.23999977 l 0.20800018 0.06400013 l 0.75199986 -1.1199999 q 0.032000065 -0.048000336 0.032000065 -0.09600067 q 0 -0.047999382 -0.07999992 -0.11199951 q -0.19199991 -0.12800026 -0.54400015 -0.7040005 q -0.54400015 -0.9119997 -0.8800001 -1.3919992 q 5.408 0.67199993 6.7040005 1.1679993 l 0.6879997 -0.592 q 0.07999992 -0.07999992 0.07999992 -0.119999886 q 0 -0.03999996 -0.11199951 -0.055999756 l -3.92 -0.5120001 v -2.4960003 q 2.4639997 0.30400038 2.9919996 0.5440006 l 0.65600014 -0.5600004 q 0.09599972 -0.07999992 0.09599972 -0.119999886 q 0 -0.03999996 -0.1279993 -0.056000233 l -3.6160002 -0.36800003 v -2.672 q 4.4639997 0.38399982 5.1519995 0.7680001 l 0.81600094 -0.6240001 Z m -6.6080008 -0.19199991 v 2.6560001 l -2.848 -0.2720003 l 0.14400005 -2.592 l 2.704 0.20800018 Z "/>
        </symbol>
        <symbol id="g52905CBD3EF93518397558FEBA1CF7AA" overflow="visible">
            <path d="M 0 0m 1.5040001 8.784 l -0.288 0.15999985 q 0.464 1.1040001 1.1200001 1.6400003 q 0.6559999 0.53600025 1.5999999 0.53600025 q 0.944 0 1.5520003 -0.5120001 q 0.6079998 -0.5120001 0.6079998 -1.1360006 q 0 -0.6239996 -0.4239998 -1.184 q -0.42400026 -0.55999994 -1.3200002 -1.2319999 q 1.1680002 0.07999992 1.8720002 -0.6879997 q 0.704 -0.7680001 0.704 -1.9680004 q 0 -1.552 -1.1040001 -2.624 q -1.1040001 -1.072 -2.8160002 -1.072 q -1.1040001 0 -1.6800001 0.264 q -0.57600003 0.26400006 -0.57600003 0.61600006 q 0 0.15999997 0.15200001 0.296 q 0.15199995 0.13599992 0.37600005 0.13599992 q 0.22399998 0 0.576 -0.288 q 0.896 -0.67200005 1.5200001 -0.67200005 q 0.9760001 0 1.72 0.84800005 q 0.74399996 0.84800005 0.74399996 2.0640001 q 0 1.0239999 -0.5039997 1.688 q -0.5040002 0.66400003 -1.2720003 0.66400003 q -0.592 0 -1.2160001 -0.5439997 l -0.17599988 0.3039999 q 0.31999993 0.2880001 0.704 0.57599974 q 1.76 1.296 1.76 2.1920004 q 0 0.65600014 -0.44000006 1.0559998 q -0.44000006 0.40000057 -1.0879998 0.40000057 q -0.64800024 0 -1.2160001 -0.3920002 q -0.5680001 -0.3920002 -0.88800013 -1.1280003 Z "/>
        </symbol>
        <symbol id="gE6041399C016F10845619EAEBA850A8F" overflow="visible">
            <path d="M 0 0m 11.0720005 12.832001 l 0.72000027 -0.62400055 q 0.07999992 -0.063999176 0.07999992 -0.11199951 q 0 -0.048000336 -0.15999985 -0.20800018 q -0.15999985 -0.15999985 -0.22399998 -0.31200027 q -0.06400013 -0.15199947 -0.06400013 -0.43999958 v -9.68 q 0 -1.9200001 -0.19999981 -2.3920002 q -0.20000076 -0.47200006 -0.2720003 -0.47200006 q -0.0720005 0 -0.13599968 0.06400001 q -0.91200066 1.1040001 -2.2400007 2.256 l 0.12800026 0.20799994 l 1.9040003 -1.2 q 0.17599964 0.44800004 0.17599964 1.4240001 v 10.208001 l -4.624 -0.52800083 q 0.015999794 -1.3119993 -0.032000065 -2.6239996 q 2.6879997 0.36800003 3.12 0.6399994 l 0.43200016 -0.46399975 q 0.06400013 -0.06400013 0.06400013 -0.11199951 q 0 -0.048000336 -0.11199951 -0.06400013 l -3.5360007 -0.52800035 q -0.032000065 -0.8800001 -0.22399998 -2.4639997 q 3.0400004 0.43199968 3.4880004 0.704 l 0.4960003 -0.48000002 q 0.063999176 -0.06400013 0.063999176 -0.11199999 q 0 -0.048000336 -0.09599972 -0.06400013 l -4.0160003 -0.5760002 q -0.3039999 -1.984 -1.184 -3.3600001 q -0.8799999 -1.376 -2.704 -2.624 l -0.176 0.19200003 q 2.4320002 2 3.1120005 4.3360004 q 0.6799998 2.336 0.6799998 6.3040004 q 0 1.7600002 -0.3039999 3.12 l 0.2079997 0.09599972 l 0.65600014 -1.4239998 l 4.48 0.5439997 l 0.4960003 0.7680006 Z "/>
        </symbol>
        <symbol id="gBB3FA51FA9C3C8A26ECC872317F7B817" overflow="visible">
            <path d="M 0 0m 5.6800003 0.91200006 q -0.83200026 0.047999978 -1.8720002 0.047999978 q -1.04 0 -1.872 -0.047999978 v 0.25600004 l 0.832 0.14399993 q 0.55999994 0.11199999 0.55999994 0.6240001 v 7.9040003 l -1.904 -1.2319994 l -0.22399998 0.3039999 q 1.1040001 0.72000027 2.6560001 2.2080002 h 0.5280001 v -9.184001 q 0 -0.544 0.55999994 -0.6400001 l 0.73600006 -0.1279999 v -0.25600004 Z "/>
        </symbol>
        <symbol id="gC5A51F12F827BFC6678B5E665485935A" overflow="visible">
            <path d="M 0 0m 11.008 11.68 l 0.65600014 -0.592 q 0.12800026 -0.11199951 0.12800026 -0.17599964 q 0 -0.06400013 -0.16800022 -0.25600052 q -0.16800022 -0.19199944 -0.23200035 -0.37599945 q -0.06400013 -0.18400002 -0.07999992 -0.63199997 l -0.2880001 -5.8080006 q -0.19199944 -4.112 -0.47999954 -4.112 q -0.06400013 0 -0.1760006 0.24000001 l -0.5439997 1.12 l -4.4960003 -0.49600005 q 0 -0.64 -0.06399965 -0.864 q -0.06400013 -0.224 -0.12000036 -0.224 q -0.055999756 0 -0.18400002 0.24000001 l -0.55999994 1.088 q 0.35200024 0.30400002 0.3039999 2.5920002 l -0.09599972 5.2480006 q 0 1.632 -0.2880001 2.9279995 l 0.27199984 0.09599972 l 0.5600004 -1.3599997 l 5.2799997 0.62400055 l 0.5760002 0.7199993 Z m -0.35200024 -1.2959995 l -5.44 -0.60800076 l 0.048000336 -3.6639996 q 3.0239997 0.36800003 3.9360003 0.73600006 l 0.55999947 -0.4960003 q 0.07999992 -0.07999992 0.07999992 -0.13600016 q 0 -0.055999756 -0.15999985 -0.07200003 l -4.416 -0.55999994 l 0.06399965 -4.432 q 3.7440004 0.43200004 3.9360008 0.6240001 l 0.67199993 -0.5120001 q 0.39999962 0.352 0.47999954 2.5760002 l 0.23999977 6.5440006 Z "/>
        </symbol>
        <symbol id="g1A9712F415A24B1C253A8E0DF6915F0D" overflow="visible">
            <path d="M 0 0m 14 3.92 h -14 v 0.42000008 h 14 v -0.42000008 Z "/>
        </symbol>
        <symbol id="g931E3974F8D312241F7A040E15949708" overflow="visible">
            <path d="M 0 0m 1.316 7.6860003 l -0.25199997 0.13999987 q 0.40600002 0.9659996 0.98000014 1.4350004 q 0.5739999 0.46899986 1.3999999 0.46899986 q 0.40600014 0 0.7490003 -0.1260004 q 0.34299994 -0.12599945 0.5949998 -0.32199955 q 0.25199986 -0.1960001 0.39900017 -0.4619999 q 0.14699984 -0.26600075 0.14699984 -0.53200054 q 0 -0.546 -0.36399984 -1.0359998 q -0.36400032 -0.49000025 -1.1620002 -1.0780001 q 0.53200006 0.027999878 0.95200014 -0.13999987 q 0.42000008 -0.16800022 0.7069998 -0.48300028 q 0.28700018 -0.31500006 0.44099998 -0.75600004 q 0.15400028 -0.44099998 0.15400028 -0.94499993 q 0 -0.6860001 -0.2590003 -1.2740002 q -0.25899982 -0.58799994 -0.7209997 -1.022 q -0.4619999 -0.43400002 -1.0920002 -0.686 q -0.6299999 -0.25200003 -1.358 -0.25200003 q -0.96599996 0 -1.4699999 0.231 q -0.50400007 0.23100007 -0.50400007 0.53900003 q 0 0.11199999 0.07000005 0.21000004 q 0.06999999 0.09799993 0.19599998 0.13999999 q 0.12600005 0.041999936 0.30799997 0 q 0.18200004 -0.042000055 0.39200008 -0.22399998 q 0.77 -0.58800006 1.3299999 -0.58800006 q 0.46200013 0 0.8540001 0.21000004 q 0.3920002 0.21000004 0.6789999 0.56700003 q 0.28700018 0.357 0.4550004 0.8119999 q 0.16799974 0.45500016 0.16799974 0.9590001 q 0 0.44799995 -0.11899996 0.8260002 q -0.11899996 0.37799978 -0.32200003 0.651 q -0.20300007 0.27299976 -0.49000025 0.42700005 q -0.2869997 0.1539998 -0.6229999 0.1539998 q -0.5319998 0 -1.0639999 -0.47599983 l -0.15400004 0.2659998 q 0.1400001 0.12599993 0.2939999 0.25199986 q 0.15400004 0.12599993 0.32200003 0.25200033 q 1.54 1.1339998 1.54 1.9179997 q 0 0.5879998 -0.37799978 0.93100023 q -0.37800002 0.3430004 -0.9660001 0.3430004 q -0.55999994 0 -1.0569999 -0.3430004 q -0.4970001 -0.3430004 -0.7770002 -0.987 Z "/>
        </symbol>
    </defs>
</svg>
